<?xml version="1.0" encoding="utf-8"?>
<!-- Generator: Adobe Illustrator 25.2.3, SVG Export Plug-In . SVG Version: 6.00 Build 0)  -->
<svg version="1.1" id="Layer_1" xmlns="http://www.w3.org/2000/svg" xmlns:xlink="http://www.w3.org/1999/xlink" x="0px" y="0px"
	 viewBox="0 0 530 530" style="enable-background:new 0 0 530 530;" xml:space="preserve">
<style type="text/css">
	.st0{fill-rule:evenodd;clip-rule:evenodd;fill:#FFFFFF;}
	.st1{fill-rule:evenodd;clip-rule:evenodd;fill:#05BF85;}
</style>
<g>
	<path class="st0" d="M530,530H0V0h530V530z M263.6,404.53c46.1,1.22,91.2-14.17,127.3-43.52c16.3-13.45,30.2-29.66,41.2-47.8
		c15.2-24.46,24.3-52.29,26.4-81.13c4.4-43.32-6.6-86.84-31-122.61c-11.5-17.63-26-33.12-42.7-45.76
		c-12.2-9.17-25.3-16.92-39.2-23.14c-27.8-12.13-58.1-17.43-88.3-15.49c-43.1,2.45-84,19.88-116.1,49.23
		c-17.3,15.08-31.4,33.63-41.4,54.63c-29.3,56.57-27.6,124.55,4.7,179.28c10.5,19.37,24.5,36.59,41.4,50.55
		c12.6,10.6,26.3,19.57,40.9,26.91C210.8,397.4,237,403.82,263.6,404.53z M182.8,471.19c6.8-6.52,8.2-16.92,3.5-25.07
		c-0.5-0.61-1.1-1.12-1.7-1.53c-7.6-2.96-15.8-3.77-23.8-2.55c-0.5,0-1.4,1.73-1.4,2.65c-0.1,18.96-0.1,37.92,0,56.87
		c0.3,1.22,1.1,2.14,2.3,2.55c5.4,0.31,10.8,0.2,16.2-0.2c6.4,0.2,11.7-4.89,11.9-11.42c0-0.31,0-0.61,0-0.92
		c0.2-3.36,0.2-6.83-0.1-10.19C189.9,476.9,187.1,472.72,182.8,471.19z M279.4,472.52c5.4-5.71,7.3-14.07,4.8-21.61
		c-0.3-4.38-3.8-7.95-8.1-8.26c-6.7-0.61-13.5-0.1-20.7-0.1v23.75c0,11.21,0.2,22.52-0.1,33.74c-0.1,3.77,1.2,4.99,4.6,4.48
		c0.6-0.1,1.3-0.1,1.9,0c2.5,0.31,3.4-0.71,3.4-3.36c-0.1-6.12-0.1-12.33,0-18.45c0-2.04-0.9-4.79,2.6-4.89c3.1-0.1,6.1,0.31,7,4.08
		c0.3,1.53,0.4,3.06,0.4,4.69c0.1,4.79,0,9.68,0.3,14.47c0.1,1.22,1.3,3.16,2.2,3.26c2.4,0.31,4.9,0.31,7.3,0.2
		c0-6.52,0-12.43,0-18.24C285.6,480.77,283.5,475.57,279.4,472.52z M318.3,441.84c-7.7,0-15.3,0.1-22.8-0.1
		c-3.2-0.1-4.2,0.82-4.2,4.18c0.1,18.04,0.1,36.08,0.1,54.12c0,1.22,0.1,2.55,0.2,3.87h26.6v-8.56c-4.9,0-9.5-0.1-14.1,0
		c-2.1,0-3.1-0.71-3-2.96c0.1-2.96,0-6.01,0-9.07c0.1-8.15-0.9-7.03,7-7.13c7.8-0.1,7.8,0,6.8-8.15c0-0.2-0.3-0.41-0.7-0.92
		c-3.1,0-6.4-0.1-9.7,0c-2.4,0.1-3.5-0.71-3.4-3.36c0.2-3.16,0.2-6.32,0-9.38c-0.2-3.06,1.1-3.87,3.9-3.77c4.3,0.1,8.7,0,13.3,0
		L318.3,441.84z M321.6,442.04c-1.2,8.46-1.2,8.66,6.1,8.66c3,0,3.7,1.12,3.6,3.97c-0.1,15.29-0.1,30.58,0,45.87
		c0,1.53-0.7,3.67,2,3.77c2.4,0.1,4.8,0,7.6,0v-5.1c0-14.27,0-28.54,0-42.71c0-5.61,0-5.61,5.4-5.61c5.7,0,5.7,0,5.5-5.81
		c0-0.92-0.2-1.73-0.4-2.85L321.6,442.04z M369.9,441.84c-3.7,0-7.5,0.2-11.2-0.1c-3.2-0.2-3.7,1.12-3.9,4.08
		c-0.2,3.98,1.1,5.3,5,4.99c5.2-0.31,5.2-0.1,5.2,5.3c0,14.68,0.2,29.35-0.1,43.93c-0.1,4.18,1.8,4.38,4.9,4.28
		c2.9-0.1,5.1,0.2,5-4.08c-0.3-13.96-0.1-28.03-0.1-41.99c0-7.13,0-7.24,7-7.44c3.5-0.1,3.1-2.34,3-4.48
		c-0.1-2.04,0.8-4.69-2.9-4.59C377.9,441.94,373.9,441.84,369.9,441.84L369.9,441.84z M208.2,512.06h26.7v-6.63h-26.7V512.06z
		 M248.4,504.72v-10.29c-3-0.1-6,0.31-8.8,1.43c-1.2,2.24-1.3,4.89-0.1,7.13C242.4,504.21,245.4,504.72,248.4,504.72z M204.5,504.01
		v-9.07h-8.9v9.07H204.5z"/>
	<path class="st1" d="M263.6,404.53c-26.6-0.71-52.8-7.13-76.8-18.86c-14.6-7.34-28.4-16.41-40.9-26.91
		c-16.9-13.96-30.9-31.09-41.4-50.55c-32.3-54.73-34-122.72-4.7-179.18c9.9-20.89,24-39.55,41.4-54.63
		c32.1-29.35,73-46.78,116.1-49.23c30.2-1.94,60.4,3.36,88.3,15.49c13.9,6.22,27,13.96,39.2,23.14c16.7,12.64,31.2,28.13,42.7,45.76
		c24.5,35.78,35.5,79.19,31,122.61c-2.1,28.84-11.2,56.67-26.4,81.13c-11,18.14-24.9,34.35-41.2,47.8
		C354.8,390.37,309.7,405.76,263.6,404.53z M260.8,396.68c32.4,1.43,64.5-5.81,93.3-20.89c12.8-7.13,24.9-15.49,36.3-24.87
		c17.3-14.37,31.3-32.41,41-52.8c28.9-54.53,27.3-120.47-4.2-173.47C416.4,105.18,402,87.96,384.8,74
		c-15.5-12.84-33-22.93-51.7-29.86C266.8,19.06,192.4,34.96,141.5,85c-17.8,16.92-31.6,37.71-40.6,60.75
		c-19.7,46.27-18.5,98.97,3.2,144.32c9.7,22.02,23.8,41.69,41.5,57.79c12.5,11.42,26.4,21.2,41.3,29.05
		C209.9,388.84,235,395.56,260.8,396.68z"/>
	<path class="st1" d="M182.8,471.19c4.3,1.53,7.1,5.71,6.9,10.29c0.3,3.36,0.3,6.83,0.1,10.19c0.3,6.52-4.6,12.03-11,12.33
		c-0.3,0-0.6,0-0.9,0c-5.4,0.41-10.8,0.51-16.2,0.2c-1.1-0.41-2-1.33-2.3-2.55c-0.1-18.96-0.1-37.92,0-56.87
		c0-0.92,0.9-2.65,1.4-2.65c8-1.32,16.2-0.41,23.8,2.55c0.7,0.41,1.2,0.92,1.7,1.53C191,454.27,189.5,464.67,182.8,471.19z
		 M169,485.77c-0.1,1.73-0.1,3.36,0.1,5.1c0.3,1.53,1,4.08,1.7,4.28c2.9,0.41,7,1.22,7.8-2.75c0.8-4.18,0.8-8.46,0-12.64
		c-0.8-3.87-4.7-3.67-7.7-3.06c-0.9,0.2-1.5,2.96-1.8,4.59C168.9,482.61,168.9,484.24,169,485.77z M169,458.86L169,458.86
		c-0.1,1.94,0,3.87,0.1,5.91c0.1,0.92,0.6,1.73,1.4,2.24c2.9,1.12,6.2-0.41,7.3-3.47c0.1-0.31,0.2-0.71,0.3-1.02
		c0.3-2.55,0.3-5.2-0.1-7.75c-0.5-3.77-3.5-3.97-6.5-3.97c-3.4,0-2.3,2.75-2.5,4.59C168.9,456.51,169,457.74,169,458.86z"/>
	<path class="st1" d="M279.4,472.52c4.1,3.16,6.2,8.36,5.5,13.56c0,5.91,0,11.72,0,18.24c-2.4,0.2-4.9,0.1-7.3-0.2
		c-0.9-0.2-2.1-2.14-2.2-3.26c-0.3-4.79-0.2-9.68-0.3-14.47c0-1.53-0.1-3.16-0.4-4.69c-0.9-3.77-3.9-4.08-7-4.08
		c-3.5,0.1-2.6,2.85-2.6,4.89c-0.1,6.12-0.1,12.33,0,18.45c0.1,2.55-0.9,3.57-3.4,3.36c-0.6-0.1-1.3-0.1-1.9,0
		c-3.4,0.51-4.7-0.71-4.6-4.48c0.2-11.21,0.1-22.52,0.1-33.74v-23.75c7.3,0,14-0.41,20.7,0.1c4.3,0.41,7.8,3.87,8.1,8.26
		C286.6,458.35,284.8,466.71,279.4,472.52z M265,459.57L265,459.57c-0.1,2.04-0.1,4.18,0.1,6.22c0.2,1.02,0.8,1.94,1.7,2.45
		c3.1,1.12,6.5-0.41,7.6-3.57c0.2-0.51,0.3-0.92,0.3-1.43c0.3-2.75,0.2-5.5-0.1-8.15c-0.5-3.87-3.4-4.38-6.6-4.38
		c-3.5,0-3.2,2.55-3.1,4.89C265.1,457.02,265,458.35,265,459.57z"/>
	<path class="st1" d="M318.3,441.84v8.97c-4.6,0-9,0.1-13.3,0c-2.7-0.1-4.1,0.71-3.9,3.77c0.2,3.16,0.2,6.32,0,9.38
		c-0.1,2.65,1,3.47,3.4,3.36c3.3-0.1,6.6,0,9.7,0c0.4,0.51,0.7,0.71,0.7,0.92c1,8.15,1,8.05-6.8,8.15c-7.9,0.1-6.9-1.02-7,7.13
		c0,3.06,0.1,6.01,0,9.07c-0.1,2.24,0.9,2.96,3,2.96c4.6-0.1,9.2,0,14.1,0v8.66h-26.6c-0.1-1.43-0.2-2.65-0.2-3.87
		c0-18.04,0.1-36.08-0.1-54.12c0-3.26,1-4.28,4.2-4.18C303,441.94,310.6,441.84,318.3,441.84z"/>
	<path class="st1" d="M321.6,442.04h29.8c0.2,1.12,0.3,1.94,0.4,2.85c0.2,5.81,0.2,5.81-5.5,5.81c-5.3,0-5.4,0-5.4,5.61
		c0,14.27,0,28.54,0,42.71v5.1c-2.9,0-5.3,0-7.6,0c-2.7-0.1-2-2.24-2-3.77c0-15.29-0.1-30.58,0-45.87c0-2.75-0.7-3.98-3.6-3.98
		C320.4,450.7,320.4,450.5,321.6,442.04z"/>
	<path class="st1" d="M369.9,441.84c4,0,8,0.1,11.9,0c3.7-0.1,2.9,2.45,2.9,4.59c0.1,2.14,0.5,4.38-3,4.48c-7,0.1-7,0.31-7,7.44
		c0,13.96-0.2,28.03,0.1,41.99c0.1,4.38-2.1,4.08-5,4.08c-3.1,0.1-4.9-0.1-4.9-4.28c0.3-14.68,0.1-29.35,0.1-43.93
		c0-5.3,0-5.61-5.2-5.3c-3.9,0.2-5.2-1.02-5-4.99c0.2-2.96,0.7-4.28,3.9-4.08C362.5,442.04,366.2,441.84,369.9,441.84z"/>
	<path class="st1" d="M208.2,512.06v-6.63h26.7v6.63H208.2z"/>
	<path class="st1" d="M248.4,504.72c-3,0-6.1-0.61-8.9-1.73c-1.1-2.24-1.1-4.89,0.1-7.13c2.8-1.12,5.8-1.53,8.8-1.43V504.72z"/>
	<path class="st1" d="M204.5,504.01h-8.9v-9.07h8.9V504.01z"/>
	<path class="st0" d="M260.8,396.68c-25.7-1.12-50.9-7.85-73.9-19.67c-14.9-7.85-28.8-17.63-41.3-29.05
		c-17.7-16.1-31.8-35.78-41.5-57.79c-21.7-45.36-22.9-98.05-3.2-144.32c9-23.03,22.8-43.83,40.6-60.75
		c50.8-50.04,125.3-65.94,191.6-40.87c18.7,6.83,36.2,16.92,51.6,29.66c17.2,13.96,31.6,31.09,42.4,50.66
		c31.4,53,33,118.94,4.2,173.47c-9.7,20.49-23.7,38.53-41,52.8c-11.3,9.38-23.5,17.73-36.3,24.87
		C325.3,390.87,293.1,398.11,260.8,396.68z M319.2,247.67c-0.4-0.61-0.8-1.22-1.2-1.83c-4.5-9.38-9.1-18.65-13.6-28.03
		c-3.6-7.54-7.1-15.08-10.4-22.83c-1-2.34-1.6-4.89-1.6-7.54c-0.1-29.35-0.1-58.61-0.1-87.96c0-1.63-0.1-3.26-0.2-4.99h-54.5v4.48
		c0,8.77-0.2,17.53,0.1,26.3c0.1,3.67-0.8,5.2-4.7,4.89c-4.9-0.31-9.8-0.1-14.6-0.1c-5.2,0-5.2,0-5.2,5.3c0,57.99,0,115.89,0,173.88
		v6.01h-46.4v19.47c1.5,0.1,2.8,0.2,4,0.2c30.2,0,60.3,0,90.5,0c5.1,0,5.1,0,5.1-5.2c0-37.92,0-75.93,0-113.85
		c0-1.22,0.1-2.34,0-3.57c-0.2-2.14,0.7-3.06,2.9-2.96c3.2,0.2,6.4,0.2,9.6,0c2.5-0.41,4.8,1.02,5.6,3.47
		c5.8,12.94,11.8,25.89,17.7,38.83c0.5,1.02,0.8,2.14,1.2,3.26l-14.6,7.03l25.2,53.31h-37.2v19.37h37.7c0-5.4,0.1-10.7-0.1-15.9
		c-0.3-2.14,1-4.08,3-4.79c9.3-4.28,18.6-8.87,27.9-13.15c4-1.94,8.2-3.57,12.7-5.61l-25.7-53.61L319.2,247.67z M355.2,315.25
		c0,6.22-0.1,11.82,0.1,17.43c0,0.71,1,2.04,1.6,2.14c5.7,0.2,11.4,0.1,17.4,0.1c0-6.22,0.1-11.82-0.1-17.43
		c-0.2-1.02-1-1.83-1.9-2.14C366.8,315.15,361.3,315.25,355.2,315.25L355.2,315.25z M324.9,315.25c0,6.12-0.1,11.82,0.1,17.53
		c0.3,1.02,1.1,1.73,2,2.04c4.9,0.2,9.7,0.2,14.6,0c1.1-0.31,1.9-1.12,2.2-2.24c0.2-4.89,0.2-9.89,0-14.88
		c-0.2-1.12-1-2.04-2.1-2.34C336.3,315.15,330.8,315.25,324.9,315.25L324.9,315.25z"/>
	<path class="st0" d="M169,485.77c-0.1-1.53-0.1-3.16,0.1-4.69c0.3-1.63,0.9-4.38,1.8-4.59c3-0.61,6.9-0.71,7.7,3.06
		c0.8,4.18,0.8,8.46,0,12.64c-0.8,3.97-4.9,3.16-7.8,2.75c-0.8-0.1-1.5-2.65-1.7-4.28C168.9,489.13,168.9,487.5,169,485.77z"/>
	<path class="st0" d="M169,458.86c0-1.22-0.1-2.34,0-3.57c0.2-1.83-0.9-4.59,2.5-4.59c2.9,0,5.9,0.2,6.5,3.98
		c0.4,2.55,0.4,5.2,0.1,7.75c-0.5,3.16-3.4,5.3-6.5,4.79c-0.3-0.1-0.7-0.1-1-0.31c-0.8-0.51-1.3-1.33-1.4-2.24
		C169,462.73,168.9,460.79,169,458.86L169,458.86z"/>
	<path class="st0" d="M265,459.57c0-1.33,0-2.65,0-3.87c0-2.34-0.4-4.89,3.1-4.89c3.2,0,6.1,0.51,6.6,4.38
		c0.3,2.75,0.4,5.5,0.1,8.15c-0.4,3.36-3.3,5.71-6.6,5.3c-0.5-0.1-1-0.2-1.4-0.31c-0.9-0.51-1.6-1.43-1.7-2.45
		C265,463.75,265,461.71,265,459.57L265,459.57z"/>
	<path class="st1" d="M319.2,247.67l13.2-6.01l25.7,53.61c-4.5,1.94-8.7,3.67-12.7,5.61c-9.3,4.38-18.6,8.87-27.9,13.15
		c-2,0.61-3.2,2.65-3,4.79c0.2,5.2,0.1,10.4,0.1,15.9h-37.7v-19.37h37.2l-25.2-53.31l14.6-7.03c-0.4-1.22-0.7-2.24-1.2-3.26
		c-5.9-12.94-11.9-25.79-17.7-38.83c-0.7-2.45-3.1-3.97-5.6-3.47c-3.2,0.2-6.4,0.2-9.6,0c-2.2-0.1-3,0.82-2.9,2.96
		c0.1,1.12,0,2.34,0,3.57c0,37.92,0,75.93,0,113.85c0,5.2,0,5.2-5.1,5.2c-30.2,0-60.3,0-90.5,0c-1.3,0-2.5-0.1-4-0.2v-19.47h46.4
		v-6.01c0-57.99,0-115.89,0-173.88c0-5.3,0-5.3,5.2-5.3c4.9,0,9.8-0.2,14.6,0.1c3.8,0.2,4.8-1.22,4.7-4.89
		c-0.2-8.77-0.1-17.53-0.1-26.3v-4.48h54.5c0.1,1.73,0.2,3.36,0.2,4.99c0,29.35,0,58.61,0.1,87.96c0,2.55,0.6,5.1,1.6,7.54
		c3.3,7.64,6.8,15.29,10.4,22.83c4.5,9.38,9,18.75,13.6,28.03C318.3,246.45,318.7,247.06,319.2,247.67z M265.4,113.54h-1.2
		c-7.9,0-7.9,0-7.9,7.95c0,8.66,0,8.66,8.5,8.66c8.9,0,8.9,0,8.9-8.56C273.7,113.54,273.7,113.54,265.4,113.54z"/>
	<path class="st1" d="M355.2,315.25c6.1,0,11.6-0.1,17.1,0.1c1,0.31,1.7,1.12,1.9,2.14c0.2,5.61,0.1,11.21,0.1,17.43
		c-6,0-11.7,0.1-17.4-0.1c-0.6,0-1.6-1.33-1.6-2.14C355.1,327.07,355.2,321.47,355.2,315.25z"/>
	<path class="st1" d="M324.9,315.25c5.9,0,11.4-0.1,16.9,0.1c1.1,0.41,1.8,1.22,2.1,2.34c0.2,4.89,0.2,9.89,0,14.88
		c-0.3,1.12-1.2,1.94-2.2,2.24c-4.8,0.2-9.7,0.2-14.6,0c-1-0.31-1.8-1.02-2-2.04C324.8,327.17,324.9,321.47,324.9,315.25z"/>
	<path class="st0" d="M265.4,113.54c8.3,0,8.3,0,8.3,7.95c0,8.56,0,8.56-8.9,8.56c-8.5,0-8.5,0-8.5-8.66c0-7.95,0-7.95,7.9-7.95h1.2
		V113.54z"/>
</g>
</svg>
