<svg id="Layer_1" data-name="Layer 1" xmlns="http://www.w3.org/2000/svg" width="53" height="52" viewBox="0 0 53 52" preserveAspectRatio="xMidYMid meet"><defs><style>.cls-1{fill:#fff;}.cls-1,.cls-2{fill-rule:evenodd;}.cls-2{fill:#05bf85;}</style></defs><path class="cls-1" d="M53.1,52H.1V0h53ZM26.5,39.7a19.5436,19.5436,0,0,0,12.7-4.3,18.5119,18.5119,0,0,0,4.1-4.7,17.2181,17.2181,0,0,0,2.6-8,18.2826,18.2826,0,0,0-3.1-12,20.3641,20.3641,0,0,0-4.3-4.5A18.6171,18.6171,0,0,0,25.8,2.4,18.5657,18.5657,0,0,0,14.2,7.2a16.8216,16.8216,0,0,0-4.1,5.4,17.8217,17.8217,0,0,0,.5,17.6,17.9911,17.9911,0,0,0,4.1,5,21.8637,21.8637,0,0,0,4.1,2.6A18.608,18.608,0,0,0,26.5,39.7Zm-8.1,6.5a2.121,2.121,0,0,0,.4-2.5c0-.1-.1-.1-.2-.2a3.9729,3.9729,0,0,0-2.4-.2c-.1,0-.1.2-.1.3v5.6a.2151.2151,0,0,0,.2.2h1.6a1.2007,1.2007,0,0,0,1.2-1.1V47.2A1.2041,1.2041,0,0,0,18.4,46.2Zm9.7.2a2.3371,2.3371,0,0,0,.5-2.1.86.86,0,0,0-.8-.8,14.7187,14.7187,0,0,0-2.1,0v5.6c0,.4.1.5.5.4h.2a.2652.2652,0,0,0,.3-.3V47.4c0-.2-.1-.5.3-.5.3,0,.6,0,.7.4v1.9c0,.1.1.3.2.3h.7V47.7A1.3019,1.3019,0,0,0,28.1,46.4ZM32,43.3H29.7c-.3,0-.4.1-.4.4v5.7H32v-.8H30.6a.2652.2652,0,0,1-.3-.3v-.9c0-.8-.1-.7.7-.7s.8,0,.7-.8l-.1-.1h-1c-.2,0-.4-.1-.3-.3v-.9c0-.3.1-.4.4-.4H32Zm.3.1c-.1.8-.1.8.6.8.3,0,.4.1.4.4v4.5c0,.2-.1.4.2.4h.8V44.8c0-.5,0-.5.5-.5.6,0,.6,0,.5-.6v-.3Zm4.8-.1H36c-.3,0-.4.1-.4.4,0,.4.1.5.5.5.5,0,.5,0,.5.5V49c0,.4.2.4.5.4s.5,0,.5-.4V44.9c0-.7,0-.7.7-.7.3,0,.3-.2.3-.4s.1-.5-.3-.5a4.8188,4.8188,0,0,1-1.2,0ZM20.9,50.2h2.7v-.7H20.9Zm4.1-.7v-1a2.7686,2.7686,0,0,0-.9.1.8542.8542,0,0,0,0,.7A1.4861,1.4861,0,0,0,25,49.5Zm-4.4,0v-.9h-.9v.9Z" transform="translate(-0.1)"/><path class="cls-2" d="M26.5,39.7a20.1971,20.1971,0,0,1-7.7-1.8,21.8637,21.8637,0,0,1-4.1-2.6,15.2928,15.2928,0,0,1-4.1-5,18.0758,18.0758,0,0,1-.5-17.6,16.8216,16.8216,0,0,1,4.1-5.4A18.5657,18.5657,0,0,1,25.8,2.5,18.6171,18.6171,0,0,1,38.5,6.3a18.3994,18.3994,0,0,1,4.3,4.5,17.7247,17.7247,0,0,1,3.1,12,17.5983,17.5983,0,0,1-2.6,8,18.5119,18.5119,0,0,1-4.1,4.7A20.02,20.02,0,0,1,26.5,39.7Zm-.3-.8a19.7431,19.7431,0,0,0,9.3-2,22.5486,22.5486,0,0,0,3.6-2.4,16.04,16.04,0,0,0,4.1-5.2,17.1818,17.1818,0,0,0-.4-17,18.3449,18.3449,0,0,0-4.2-5,18.0654,18.0654,0,0,0-5.2-3,18.3967,18.3967,0,0,0-19.2,4,16.4781,16.4781,0,0,0-4.1,6,16.8009,16.8009,0,0,0,.3,14.2,18.06,18.06,0,0,0,4.1,5.7A16.543,16.543,0,0,0,18.6,37,18.9431,18.9431,0,0,0,26.2,38.9Z" transform="translate(-0.1)"/><path class="cls-2" d="M18.4,46.2a1.2041,1.2041,0,0,1,.7,1v1A1.2007,1.2007,0,0,1,18,49.4H16.3a.2151.2151,0,0,1-.2-.2V43.6a1.0073,1.0073,0,0,1,.1-.3,6.5225,6.5225,0,0,1,2.4.2c.1,0,.1.1.2.2A2.0955,2.0955,0,0,1,18.4,46.2ZM17,47.7v.5c0,.2.1.4.2.4.3,0,.7.1.8-.3a2.4375,2.4375,0,0,0,0-1.2c-.1-.4-.5-.4-.8-.3-.1,0-.1.3-.2.5ZM17,45h0v.6a.3491.3491,0,0,0,.1.2.5166.5166,0,0,0,.7-.3v-.9c0-.4-.4-.4-.6-.4-.3,0-.2.3-.2.5Z" transform="translate(-0.1)"/><path class="cls-2" d="M28.1,46.4a1.3019,1.3019,0,0,1,.5,1.3v1.8h-.7c-.1,0-.2-.2-.2-.3V47.3c-.1-.4-.4-.4-.7-.4-.4,0-.3.3-.3.5v1.8a.2652.2652,0,0,1-.3.3h-.2c-.3,0-.5-.1-.5-.4V43.5h2.1a.86.86,0,0,1,.8.8A2.3371,2.3371,0,0,1,28.1,46.4Zm-1.5-1.3h0v.6a.2151.2151,0,0,0,.2.2.67.67,0,0,0,.8-.3v-.9c0-.4-.3-.4-.7-.4s-.3.2-.3.5Z" transform="translate(-0.1)"/><path class="cls-2" d="M32,43.3v.9H30.7c-.3,0-.4.1-.4.4v.9c0,.3.1.3.3.3h1l.1.1c.1.8.1.8-.7.8s-.7-.1-.7.7v.9a.2652.2652,0,0,0,.3.3H32v.8H29.3V43.7c0-.3.1-.4.4-.4A17.6334,17.6334,0,0,0,32,43.3Z" transform="translate(-0.1)"/><path class="cls-2" d="M32.3,43.4h3v.3c0,.6,0,.6-.5.6s-.5,0-.5.5v4.7h-.8c-.3,0-.2-.2-.2-.4V44.6c0-.3-.1-.4-.4-.4C32.2,44.2,32.2,44.2,32.3,43.4Z" transform="translate(-0.1)"/><path class="cls-2" d="M37.1,43.3h1.2c.4,0,.3.2.3.5,0,.2,0,.4-.3.4-.7,0-.7,0-.7.7V49c0,.4-.2.4-.5.4s-.5,0-.5-.4V44.7c0-.5,0-.5-.5-.5-.4,0-.5-.1-.5-.5,0-.3.1-.4.4-.4A4.0521,4.0521,0,0,0,37.1,43.3Z" transform="translate(-0.1)"/><path class="cls-2" d="M20.9,50.2v-.7h2.7v.7Z" transform="translate(-0.1)"/><path class="cls-2" d="M25,49.5a2.92,2.92,0,0,1-.9-.2.8542.8542,0,0,1,0-.7,1.4119,1.4119,0,0,1,.9-.1Z" transform="translate(-0.1)"/><path class="cls-2" d="M20.6,49.5h-.9v-.9h.9Z" transform="translate(-0.1)"/><path class="cls-1" d="M26.2,38.9A18.8464,18.8464,0,0,1,18.8,37a19.783,19.783,0,0,1-4.1-2.8,16.8981,16.8981,0,0,1-4.2-5.7,16.7854,16.7854,0,0,1-.3-14.2,16.4781,16.4781,0,0,1,4.1-6,18.3547,18.3547,0,0,1,19.2-4,21.6037,21.6037,0,0,1,5.1,2.9,16.7334,16.7334,0,0,1,4.2,5,17.1877,17.1877,0,0,1,.4,17,16.04,16.04,0,0,1-4.1,5.2,22.5486,22.5486,0,0,1-3.6,2.4A17.6778,17.6778,0,0,1,26.2,38.9ZM32,24.3c0-.1-.1-.1-.1-.2-.5-.9-.9-1.8-1.4-2.8a21.3969,21.3969,0,0,1-1-2.2,1.8539,1.8539,0,0,1-.2-.7V9.3H23.9v3c0,.4-.1.5-.5.5H21.9c-.5,0-.5,0-.5.5V31H16.8v1.9h9.4c.5,0,.5,0,.5-.5V20.8a.2652.2652,0,0,1,.3-.3h1a.7127.7127,0,0,1,.6.3c.6,1.3,1.2,2.5,1.8,3.8,0,.1.1.2.1.3l-1.5.8,2.5,5.2H27.8v1.9h3.8V31.2a.55.55,0,0,1,.3-.5c.9-.4,1.9-.9,2.8-1.3a5.0234,5.0234,0,0,1,1.3-.5l-2.6-5.3Zm3.6,6.6v1.7a.2151.2151,0,0,0,.2.2h1.7V31.1a.2151.2151,0,0,0-.2-.2Zm-3,0v1.7a.2151.2151,0,0,0,.2.2h1.5a.2151.2151,0,0,0,.2-.2V31.1a.2151.2151,0,0,0-.2-.2Z" transform="translate(-0.1)"/><path class="cls-1" d="M17,47.7v-.5a.7638.7638,0,0,1,.2-.5c.3-.1.7-.1.8.3a2.4375,2.4375,0,0,1,0,1.2c-.1.4-.5.3-.8.3-.1,0-.1-.3-.2-.4Z" transform="translate(-0.1)"/><path class="cls-1" d="M17,45v-.3c0-.2-.1-.5.2-.5s.6,0,.6.4v.8a.56.56,0,0,1-.6.5h-.1c-.1,0-.1-.1-.1-.2V45Z" transform="translate(-0.1)"/><path class="cls-1" d="M26.6,45.1v-.4c0-.2,0-.5.3-.5s.6,0,.7.4v.8a.5449.5449,0,0,1-.7.5h-.1a.2151.2151,0,0,1-.2-.2v-.6Z" transform="translate(-0.1)"/><path class="cls-2" d="M32,24.3l1.3-.6L35.9,29a11.2151,11.2151,0,0,1-1.3.5c-.9.4-1.9.9-2.8,1.3a.55.55,0,0,0-.3.5v1.6H27.7V31h3.7L29,25.7l1.5-.7c0-.1-.1-.2-.1-.3-.6-1.3-1.2-2.5-1.8-3.8a.4856.4856,0,0,0-.6-.3H27a.2652.2652,0,0,0-.3.3V32.5c0,.5,0,.5-.5.5H16.7V31.1h4.6V13.4c0-.5,0-.5.5-.5h1.5c.4,0,.5-.1.5-.5V9.3h5.5v9.1a1.8539,1.8539,0,0,0,.2.7c.3.8.7,1.5,1,2.2.5.9.9,1.8,1.4,2.8C32,24.2,32,24.2,32,24.3ZM26.7,11.1h-.1c-.8,0-.8,0-.8.8,0,.9,0,.9.9.9s.9,0,.9-.8C27.5,11.1,27.5,11.1,26.7,11.1Z" transform="translate(-0.1)"/><path class="cls-2" d="M35.6,30.9h1.7a.2151.2151,0,0,1,.2.2v1.7H35.8a.2151.2151,0,0,1-.2-.2Z" transform="translate(-0.1)"/><path class="cls-2" d="M32.6,30.9h1.7a.2151.2151,0,0,1,.2.2v1.5a.2151.2151,0,0,1-.2.2H32.8a.2151.2151,0,0,1-.2-.2Z" transform="translate(-0.1)"/><path class="cls-1" d="M26.7,11.1c.8,0,.8,0,.8.8s0,.8-.9.8-.9,0-.9-.9c0-.8,0-.8.8-.8l.2.1Z" transform="translate(-0.1)"/></svg>