<?xml version="1.0" encoding="utf-8"?>
<!-- Generator: Adobe Illustrator 25.2.3, SVG Export Plug-In . SVG Version: 6.00 Build 0)  -->
<svg version="1.1" id="Layer_1" xmlns="http://www.w3.org/2000/svg" xmlns:xlink="http://www.w3.org/1999/xlink" x="0px" y="0px"
	 viewBox="0 0 53 52" style="enable-background:new 0 0 53 52;" xml:space="preserve">
<style type="text/css">
	.st0{fill-rule:evenodd;clip-rule:evenodd;fill:#FFFFFF;}
	.st1{fill-rule:evenodd;clip-rule:evenodd;fill:#05BF85;}
</style>
<g>
	<path class="st0" d="M52.12,52h-53V0h53V52z M25.48,39.69c4.61,0.12,9.12-1.39,12.73-4.27c1.63-1.32,3.02-2.91,4.12-4.69
		c1.52-2.4,2.43-5.13,2.64-7.96c0.44-4.25-0.66-8.52-3.1-12.03c-1.15-1.73-2.6-3.25-4.27-4.49c-1.22-0.9-2.53-1.66-3.92-2.27
		c-2.78-1.19-5.81-1.71-8.83-1.52c-4.31,0.24-8.4,1.95-11.61,4.83c-1.73,1.48-3.14,3.3-4.14,5.36C6.17,18.2,6.34,24.87,9.57,30.24
		c1.05,1.9,2.45,3.59,4.14,4.96c1.26,1.04,2.63,1.92,4.09,2.64C20.2,38.99,22.82,39.62,25.48,39.69z M17.4,46.23
		c0.68-0.64,0.82-1.66,0.35-2.46c-0.05-0.06-0.11-0.11-0.17-0.15c-0.76-0.29-1.58-0.37-2.38-0.25c-0.05,0-0.14,0.17-0.14,0.26
		c-0.01,1.86-0.01,3.72,0,5.58c0.03,0.12,0.11,0.21,0.23,0.25c0.54,0.03,1.08,0.02,1.62-0.02c0.64,0.02,1.17-0.48,1.19-1.12
		c0-0.03,0-0.06,0-0.09c0.02-0.33,0.02-0.67-0.01-1C18.11,46.79,17.83,46.38,17.4,46.23z M27.06,46.36
		c0.54-0.56,0.73-1.38,0.48-2.12c-0.03-0.43-0.38-0.78-0.81-0.81c-0.67-0.06-1.35-0.01-2.07-0.01v2.33c0,1.1,0.02,2.21-0.01,3.31
		c-0.01,0.37,0.12,0.49,0.46,0.44c0.06-0.01,0.13-0.01,0.19,0c0.25,0.03,0.34-0.07,0.34-0.33c-0.01-0.6-0.01-1.21,0-1.81
		c0-0.2-0.09-0.47,0.26-0.48c0.31-0.01,0.61,0.03,0.7,0.4c0.03,0.15,0.04,0.3,0.04,0.46c0.01,0.47,0,0.95,0.03,1.42
		c0.01,0.12,0.13,0.31,0.22,0.32c0.24,0.03,0.49,0.03,0.73,0.02c0-0.64,0-1.22,0-1.79C27.68,47.17,27.47,46.66,27.06,46.36z
		 M30.95,43.35c-0.77,0-1.53,0.01-2.28-0.01c-0.32-0.01-0.42,0.08-0.42,0.41c0.01,1.77,0.01,3.54,0.01,5.31
		c0,0.12,0.01,0.25,0.02,0.38h2.66V48.6c-0.49,0-0.95-0.01-1.41,0c-0.21,0-0.31-0.07-0.3-0.29c0.01-0.29,0-0.59,0-0.89
		c0.01-0.8-0.09-0.69,0.7-0.7c0.78-0.01,0.78,0,0.68-0.8c0-0.02-0.03-0.04-0.07-0.09c-0.31,0-0.64-0.01-0.97,0
		c-0.24,0.01-0.35-0.07-0.34-0.33c0.02-0.31,0.02-0.62,0-0.92c-0.02-0.3,0.11-0.38,0.39-0.37c0.43,0.01,0.87,0,1.33,0L30.95,43.35z
		 M31.28,43.37c-0.12,0.83-0.12,0.85,0.61,0.85c0.3,0,0.37,0.11,0.36,0.39c-0.01,1.5-0.01,3,0,4.5c0,0.15-0.07,0.36,0.2,0.37
		c0.24,0.01,0.48,0,0.76,0v-0.5c0-1.4,0-2.8,0-4.19c0-0.55,0-0.55,0.54-0.55c0.57,0,0.57,0,0.55-0.57c0-0.09-0.02-0.17-0.04-0.28
		L31.28,43.37z M36.11,43.35c-0.37,0-0.75,0.02-1.12-0.01c-0.32-0.02-0.37,0.11-0.39,0.4c-0.02,0.39,0.11,0.52,0.5,0.49
		c0.52-0.03,0.52-0.01,0.52,0.52c0,1.44,0.02,2.88-0.01,4.31c-0.01,0.41,0.18,0.43,0.49,0.42c0.29-0.01,0.51,0.02,0.5-0.4
		c-0.03-1.37-0.01-2.75-0.01-4.12c0-0.7,0-0.71,0.7-0.73c0.35-0.01,0.31-0.23,0.3-0.44c-0.01-0.2,0.08-0.46-0.29-0.45
		C36.91,43.36,36.51,43.35,36.11,43.35L36.11,43.35z M19.94,50.24h2.67v-0.65h-2.67V50.24z M23.96,49.52v-1.01
		c-0.3-0.01-0.6,0.03-0.88,0.14c-0.12,0.22-0.13,0.48-0.01,0.7C23.36,49.47,23.66,49.52,23.96,49.52z M19.57,49.45v-0.89h-0.89v0.89
		H19.57z"/>
	<path class="st1" d="M25.48,39.69c-2.66-0.07-5.28-0.7-7.68-1.85c-1.46-0.72-2.84-1.61-4.09-2.64c-1.69-1.37-3.09-3.05-4.14-4.96
		C6.34,24.87,6.17,18.2,9.1,12.66c0.99-2.05,2.4-3.88,4.14-5.36c3.21-2.88,7.3-4.59,11.61-4.83c3.02-0.19,6.04,0.33,8.83,1.52
		c1.39,0.61,2.7,1.37,3.92,2.27c1.67,1.24,3.12,2.76,4.27,4.49c2.45,3.51,3.55,7.77,3.1,12.03c-0.21,2.83-1.12,5.56-2.64,7.96
		c-1.1,1.78-2.49,3.37-4.12,4.69C34.6,38.3,30.09,39.81,25.48,39.69z M25.2,38.92c3.24,0.14,6.45-0.57,9.33-2.05
		c1.28-0.7,2.49-1.52,3.63-2.44c1.73-1.41,3.13-3.18,4.1-5.18c2.89-5.35,2.73-11.82-0.42-17.02c-1.08-1.91-2.52-3.6-4.24-4.97
		C36.05,6,34.3,5.01,32.43,4.33c-6.63-2.46-14.07-0.9-19.16,4.01c-1.78,1.66-3.16,3.7-4.06,5.96c-1.97,4.54-1.85,9.71,0.32,14.16
		c0.97,2.16,2.38,4.09,4.15,5.67c1.25,1.12,2.64,2.08,4.13,2.85C20.11,38.15,22.62,38.81,25.2,38.92z"/>
	<path class="st1" d="M17.4,46.23c0.43,0.15,0.71,0.56,0.69,1.01c0.03,0.33,0.03,0.67,0.01,1c0.03,0.64-0.46,1.18-1.1,1.21
		c-0.03,0-0.06,0-0.09,0c-0.54,0.04-1.08,0.05-1.62,0.02c-0.11-0.04-0.2-0.13-0.23-0.25c-0.01-1.86-0.01-3.72,0-5.58
		c0-0.09,0.09-0.26,0.14-0.26c0.8-0.13,1.62-0.04,2.38,0.25c0.07,0.04,0.12,0.09,0.17,0.15C18.22,44.57,18.07,45.59,17.4,46.23z
		 M16.02,47.66c-0.01,0.17-0.01,0.33,0.01,0.5c0.03,0.15,0.1,0.4,0.17,0.42c0.29,0.04,0.7,0.12,0.78-0.27
		c0.08-0.41,0.08-0.83,0-1.24c-0.08-0.38-0.47-0.36-0.77-0.3c-0.09,0.02-0.15,0.29-0.18,0.45C16.01,47.35,16.01,47.51,16.02,47.66z
		 M16.02,45.02L16.02,45.02c-0.01,0.19,0,0.38,0.01,0.58c0.01,0.09,0.06,0.17,0.14,0.22c0.29,0.11,0.62-0.04,0.73-0.34
		c0.01-0.03,0.02-0.07,0.03-0.1c0.03-0.25,0.03-0.51-0.01-0.76c-0.05-0.37-0.35-0.39-0.65-0.39c-0.34,0-0.23,0.27-0.25,0.45
		C16.01,44.79,16.02,44.91,16.02,45.02z"/>
	<path class="st1" d="M27.06,46.36c0.41,0.31,0.62,0.82,0.55,1.33c0,0.58,0,1.15,0,1.79c-0.24,0.02-0.49,0.01-0.73-0.02
		c-0.09-0.02-0.21-0.21-0.22-0.32c-0.03-0.47-0.02-0.95-0.03-1.42c0-0.15-0.01-0.31-0.04-0.46c-0.09-0.37-0.39-0.4-0.7-0.4
		c-0.35,0.01-0.26,0.28-0.26,0.48c-0.01,0.6-0.01,1.21,0,1.81c0.01,0.25-0.09,0.35-0.34,0.33c-0.06-0.01-0.13-0.01-0.19,0
		c-0.34,0.05-0.47-0.07-0.46-0.44c0.02-1.1,0.01-2.21,0.01-3.31v-2.33c0.73,0,1.4-0.04,2.07,0.01c0.43,0.04,0.78,0.38,0.81,0.81
		C27.78,44.97,27.6,45.79,27.06,46.36z M25.62,45.09L25.62,45.09c-0.01,0.2-0.01,0.41,0.01,0.61c0.02,0.1,0.08,0.19,0.17,0.24
		c0.31,0.11,0.65-0.04,0.76-0.35c0.02-0.05,0.03-0.09,0.03-0.14c0.03-0.27,0.02-0.54-0.01-0.8c-0.05-0.38-0.34-0.43-0.66-0.43
		c-0.35,0-0.32,0.25-0.31,0.48C25.63,44.84,25.62,44.97,25.62,45.09z"/>
	<path class="st1" d="M30.95,43.35v0.88c-0.46,0-0.9,0.01-1.33,0c-0.27-0.01-0.41,0.07-0.39,0.37c0.02,0.31,0.02,0.62,0,0.92
		c-0.01,0.26,0.1,0.34,0.34,0.33c0.33-0.01,0.66,0,0.97,0c0.04,0.05,0.07,0.07,0.07,0.09c0.1,0.8,0.1,0.79-0.68,0.8
		c-0.79,0.01-0.69-0.1-0.7,0.7c0,0.3,0.01,0.59,0,0.89c-0.01,0.22,0.09,0.29,0.3,0.29c0.46-0.01,0.92,0,1.41,0v0.85h-2.66
		c-0.01-0.14-0.02-0.26-0.02-0.38c0-1.77,0.01-3.54-0.01-5.31c0-0.32,0.1-0.42,0.42-0.41C29.42,43.36,30.18,43.35,30.95,43.35z"/>
	<path class="st1" d="M31.28,43.37h2.98c0.02,0.11,0.03,0.19,0.04,0.28c0.02,0.57,0.02,0.57-0.55,0.57c-0.53,0-0.54,0-0.54,0.55
		c0,1.4,0,2.8,0,4.19v0.5c-0.29,0-0.53,0-0.76,0c-0.27-0.01-0.2-0.22-0.2-0.37c0-1.5-0.01-3,0-4.5c0-0.27-0.07-0.39-0.36-0.39
		C31.16,44.22,31.16,44.2,31.28,43.37z"/>
	<path class="st1" d="M36.11,43.35c0.4,0,0.8,0.01,1.19,0c0.37-0.01,0.29,0.24,0.29,0.45c0.01,0.21,0.05,0.43-0.3,0.44
		c-0.7,0.01-0.7,0.03-0.7,0.73c0,1.37-0.02,2.75,0.01,4.12c0.01,0.43-0.21,0.4-0.5,0.4c-0.31,0.01-0.49-0.01-0.49-0.42
		c0.03-1.44,0.01-2.88,0.01-4.31c0-0.52,0-0.55-0.52-0.52c-0.39,0.02-0.52-0.1-0.5-0.49c0.02-0.29,0.07-0.42,0.39-0.4
		C35.37,43.37,35.74,43.35,36.11,43.35z"/>
	<path class="st1" d="M19.94,50.24v-0.65h2.67v0.65H19.94z"/>
	<path class="st1" d="M23.96,49.52c-0.3,0-0.61-0.06-0.89-0.17c-0.11-0.22-0.11-0.48,0.01-0.7c0.28-0.11,0.58-0.15,0.88-0.14V49.52z
		"/>
	<path class="st1" d="M19.57,49.45h-0.89v-0.89h0.89V49.45z"/>
	<path class="st0" d="M25.2,38.92c-2.57-0.11-5.09-0.77-7.39-1.93c-1.49-0.77-2.88-1.73-4.13-2.85c-1.77-1.58-3.18-3.51-4.15-5.67
		c-2.17-4.45-2.29-9.62-0.32-14.16c0.9-2.26,2.28-4.3,4.06-5.96c5.08-4.91,12.53-6.47,19.16-4.01C34.3,5.01,36.05,6,37.59,7.25
		c1.72,1.37,3.16,3.05,4.24,4.97c3.14,5.2,3.3,11.67,0.42,17.02c-0.97,2.01-2.37,3.78-4.1,5.18c-1.13,0.92-2.35,1.74-3.63,2.44
		C31.65,38.35,28.43,39.06,25.2,38.92z M31.04,24.3c-0.04-0.06-0.08-0.12-0.12-0.18c-0.45-0.92-0.91-1.83-1.36-2.75
		c-0.36-0.74-0.71-1.48-1.04-2.24c-0.1-0.23-0.16-0.48-0.16-0.74c-0.01-2.88-0.01-5.75-0.01-8.63c0-0.16-0.01-0.32-0.02-0.49h-5.45
		v0.44c0,0.86-0.02,1.72,0.01,2.58c0.01,0.36-0.08,0.51-0.47,0.48c-0.49-0.03-0.98-0.01-1.46-0.01c-0.52,0-0.52,0-0.52,0.52
		c0,5.69,0,11.37,0,17.06v0.59H15.8v1.91c0.15,0.01,0.28,0.02,0.4,0.02c3.02,0,6.03,0,9.05,0c0.51,0,0.51,0,0.51-0.51
		c0-3.72,0-7.45,0-11.17c0-0.12,0.01-0.23,0-0.35c-0.02-0.21,0.07-0.3,0.29-0.29c0.32,0.02,0.64,0.02,0.96,0
		c0.25-0.04,0.48,0.1,0.56,0.34c0.58,1.27,1.18,2.54,1.77,3.81c0.05,0.1,0.08,0.21,0.12,0.32l-1.46,0.69l2.52,5.23h-3.72v1.9h3.77
		c0-0.53,0.01-1.05-0.01-1.56c-0.03-0.21,0.1-0.4,0.3-0.47c0.93-0.42,1.86-0.87,2.79-1.29c0.4-0.19,0.82-0.35,1.27-0.55l-2.57-5.26
		L31.04,24.3z M34.64,30.93c0,0.61-0.01,1.16,0.01,1.71c0,0.07,0.1,0.2,0.16,0.21c0.57,0.02,1.14,0.01,1.74,0.01
		c0-0.61,0.01-1.16-0.01-1.71c-0.02-0.1-0.1-0.18-0.19-0.21C35.8,30.92,35.25,30.93,34.64,30.93L34.64,30.93z M31.61,30.93
		c0,0.6-0.01,1.16,0.01,1.72c0.03,0.1,0.11,0.17,0.2,0.2c0.49,0.02,0.97,0.02,1.46,0c0.11-0.03,0.19-0.11,0.22-0.22
		c0.02-0.48,0.02-0.97,0-1.46c-0.02-0.11-0.1-0.2-0.21-0.23C32.75,30.92,32.2,30.93,31.61,30.93L31.61,30.93z"/>
	<path class="st0" d="M16.02,47.66c-0.01-0.15-0.01-0.31,0.01-0.46c0.03-0.16,0.09-0.43,0.18-0.45c0.3-0.06,0.69-0.07,0.77,0.3
		c0.08,0.41,0.08,0.83,0,1.24c-0.08,0.39-0.49,0.31-0.78,0.27c-0.08-0.01-0.15-0.26-0.17-0.42C16.01,47.99,16.01,47.83,16.02,47.66z
		"/>
	<path class="st0" d="M16.02,45.02c0-0.12-0.01-0.23,0-0.35c0.02-0.18-0.09-0.45,0.25-0.45c0.29,0,0.59,0.02,0.65,0.39
		c0.04,0.25,0.04,0.51,0.01,0.76c-0.05,0.31-0.34,0.52-0.65,0.47c-0.03-0.01-0.07-0.01-0.1-0.03c-0.08-0.05-0.13-0.13-0.14-0.22
		C16.02,45.4,16.01,45.21,16.02,45.02L16.02,45.02z"/>
	<path class="st0" d="M25.62,45.09c0-0.13,0-0.26,0-0.38c0-0.23-0.04-0.48,0.31-0.48c0.32,0,0.61,0.05,0.66,0.43
		c0.03,0.27,0.04,0.54,0.01,0.8c-0.04,0.33-0.33,0.56-0.66,0.52c-0.05-0.01-0.1-0.02-0.14-0.03c-0.09-0.05-0.16-0.14-0.17-0.24
		C25.62,45.5,25.62,45.3,25.62,45.09L25.62,45.09z"/>
	<path class="st1" d="M31.04,24.3l1.32-0.59l2.57,5.26c-0.45,0.19-0.87,0.36-1.27,0.55c-0.93,0.43-1.86,0.87-2.79,1.29
		c-0.2,0.06-0.32,0.26-0.3,0.47c0.02,0.51,0.01,1.02,0.01,1.56h-3.77v-1.9h3.72l-2.52-5.23l1.46-0.69
		c-0.04-0.12-0.07-0.22-0.12-0.32c-0.59-1.27-1.19-2.53-1.77-3.81c-0.07-0.24-0.31-0.39-0.56-0.34c-0.32,0.02-0.64,0.02-0.96,0
		c-0.22-0.01-0.3,0.08-0.29,0.29c0.01,0.11,0,0.23,0,0.35c0,3.72,0,7.45,0,11.17c0,0.51,0,0.51-0.51,0.51c-3.02,0-6.03,0-9.05,0
		c-0.13,0-0.25-0.01-0.4-0.02v-1.91h4.64v-0.59c0-5.69,0-11.37,0-17.06c0-0.52,0-0.52,0.52-0.52c0.49,0,0.98-0.02,1.46,0.01
		c0.38,0.02,0.48-0.12,0.47-0.48c-0.02-0.86-0.01-1.72-0.01-2.58V9.28h5.45c0.01,0.17,0.02,0.33,0.02,0.49c0,2.88,0,5.75,0.01,8.63
		c0,0.25,0.06,0.5,0.16,0.74c0.33,0.75,0.68,1.5,1.04,2.24c0.45,0.92,0.9,1.84,1.36,2.75C30.95,24.18,30.99,24.24,31.04,24.3z
		 M25.66,11.14h-0.12c-0.79,0-0.79,0-0.79,0.78c0,0.85,0,0.85,0.85,0.85c0.89,0,0.89,0,0.89-0.84
		C26.49,11.14,26.49,11.14,25.66,11.14z"/>
	<path class="st1" d="M34.64,30.93c0.61,0,1.16-0.01,1.71,0.01c0.1,0.03,0.17,0.11,0.19,0.21c0.02,0.55,0.01,1.1,0.01,1.71
		c-0.6,0-1.17,0.01-1.74-0.01c-0.06,0-0.16-0.13-0.16-0.21C34.63,32.09,34.64,31.54,34.64,30.93z"/>
	<path class="st1" d="M31.61,30.93c0.59,0,1.14-0.01,1.69,0.01c0.11,0.04,0.18,0.12,0.21,0.23c0.02,0.48,0.02,0.97,0,1.46
		c-0.03,0.11-0.12,0.19-0.22,0.22c-0.48,0.02-0.97,0.02-1.46,0c-0.1-0.03-0.18-0.1-0.2-0.2C31.6,32.1,31.61,31.54,31.61,30.93z"/>
	<path class="st0" d="M25.66,11.14c0.83,0,0.83,0,0.83,0.78c0,0.84,0,0.84-0.89,0.84c-0.85,0-0.85,0-0.85-0.85
		c0-0.78,0-0.78,0.79-0.78H25.66z"/>
</g>
</svg>
