<svg id="Layer_1" data-name="Layer 1" xmlns="http://www.w3.org/2000/svg" width="53" height="52" viewBox="0 0 53 52" preserveAspectRatio="xMidYMid meet"><defs><style>.cls-1{fill:#fff;}</style></defs><path class="cls-1" d="M53,52H0V0H53ZM26.3566,39.6926a19.6166,19.6166,0,0,0,12.7268-4.2694,18.5619,18.5619,0,0,0,4.1174-4.6893,17.2461,17.2461,0,0,0,2.6382-7.9578,17.7853,17.7853,0,0,0-3.1025-12.0254,18.0466,18.0466,0,0,0-4.2728-4.49,20.6454,20.6454,0,0,0-3.9171-2.2709,19.2741,19.2741,0,0,0-8.8256-1.521A18.9662,18.9662,0,0,0,14.1151,7.3,16.4449,16.4449,0,0,0,9.98,12.6557a17.909,17.909,0,0,0,.4629,17.5884,16.9056,16.9056,0,0,0,4.1412,4.9585,21.0678,21.0678,0,0,0,4.0925,2.6419A18.9242,18.9242,0,0,0,26.3566,39.6926ZM18.2741,46.228a1.9941,1.9941,0,0,0,.3467-2.462.6565.6565,0,0,0-.172-.15,4.6776,4.6776,0,0,0-2.3768-.2464c-.0477-.0006-.14.1689-.14.26q-.0121,2.7921.0044,5.5842a.3488.3488,0,0,0,.2283.2521,12.7783,12.7783,0,0,0,1.6153-.02,1.1563,1.1563,0,0,0,1.1935-1.21,7.0857,7.0857,0,0,0-.0074-.9976A1.0263,1.0263,0,0,0,18.2741,46.228Zm9.6589.1284a2.0955,2.0955,0,0,0,.4756-2.1227.8884.8884,0,0,0-.81-.8137c-.67-.0554-1.3477-.0145-2.0728-.0145v2.3294c0,1.1031.0159,2.2065-.0088,3.3091-.0083.3693.1206.4851.46.4368A.7717.7717,0,0,1,26.17,49.48c.2476.0278.341-.073.3353-.3271-.0137-.6026-.008-1.2057-.0018-1.8084.0021-.2013-.0861-.473.2621-.4834.3075-.0092.6074.0286.6992.3952a2.0636,2.0636,0,0,1,.0394.4579c.0089.4743-.0032.95.0264,1.4226.0073.1169.1279.3064.221.3228a4.0535,4.0535,0,0,0,.73.0155c0-.641,0-1.2164,0-1.7918A1.3961,1.3961,0,0,0,27.933,46.3564Zm3.8929-3.0094c-.7717,0-1.5254.0133-2.2783-.0063-.3153-.0083-.4181.0844-.4154.4091.0146,1.77.0065,3.5407.0077,5.311,0,.1246.0113.2491.0179.3843h2.6648v-.8485c-.4935,0-.954-.0056-1.4142.0025-.21.0037-.306-.071-.2984-.29.01-.2947-.0007-.59.0023-.8851.0082-.7978-.0912-.69.6957-.6953.7828-.0056.7831-.0013.68-.7987-.0028-.0214-.0288-.04-.07-.0932-.3058,0-.6378-.0108-.9687.0036-.2445.0106-.353-.0707-.34-.3276a8.2412,8.2412,0,0,0-.0009-.9232c-.0188-.2971.1142-.3779.3869-.3687.4335.0146.8678.0039,1.3312.0039Zm.33.0239c-.1182.8326-.1182.8464.6051.8472.2967,0,.366.1148.3643.3878-.01,1.5-.006,3.0009-.0019,4.5014,0,.1512-.066.3623.2043.3679.2393.005.4788.001.7643.001v-.5035q0-2.0967,0-4.1936c0-.553.0006-.553.5354-.5546.5681-.0017.5692-.0018.5464-.5724-.0035-.0869-.023-.1732-.0382-.2812Zm4.8316-.0237c-.3723,0-.7458.0187-1.1165-.0058-.3156-.0208-.3733.112-.39.4-.0235.3944.1054.5159.4967.492.5195-.0318.5218-.0057.522.5191,0,1.4379.0157,2.8761-.01,4.3136-.0071.4055.1809.4254.487.42.2882-.0055.5078.0208.4993-.4048-.0274-1.3732-.01-2.7472-.01-4.121,0-.697,0-.7148.702-.7283.3546-.0069.31-.2255.3048-.44-.005-.2033.0755-.4606-.2912-.4468C37.784,43.36,37.3856,43.3481,36.9876,43.3472ZM20.8129,50.2408h2.6693v-.6542H20.8129Zm4.0278-.7192v-1.007a2.2052,2.2052,0,0,0-.8771.1394.73.73,0,0,0-.012.696A2.2664,2.2664,0,0,0,24.8407,49.5216Zm-4.3892-.0685v-.8917h-.8926v.8917Z"/><path d="M26.3566,39.6926a18.9242,18.9242,0,0,1-7.68-1.8481,21.0678,21.0678,0,0,1-4.0925-2.6419,16.9056,16.9056,0,0,1-4.1412-4.9585A17.909,17.909,0,0,1,9.98,12.6557,16.4449,16.4449,0,0,1,14.1151,7.3,18.9662,18.9662,0,0,1,25.721,2.4683a19.2741,19.2741,0,0,1,8.8256,1.521A20.6454,20.6454,0,0,1,38.4637,6.26a18.0466,18.0466,0,0,1,4.2728,4.4905A17.7853,17.7853,0,0,1,45.839,22.7761a17.2461,17.2461,0,0,1-2.6382,7.9578,18.5619,18.5619,0,0,1-4.1174,4.6893A19.6166,19.6166,0,0,1,26.3566,39.6926Zm-.2846-.7763a18.6092,18.6092,0,0,0,9.3328-2.0522,24.1956,24.1956,0,0,0,3.6262-2.4425,15.2479,15.2479,0,0,0,4.1-5.1839,17.1477,17.1477,0,0,0-.4157-17.0186A16.9948,16.9948,0,0,0,38.471,7.2519a17.8509,17.8509,0,0,0-5.1647-2.9257A18.3714,18.3714,0,0,0,14.15,8.34a16.5,16.5,0,0,0-4.062,5.9638,16.9318,16.9318,0,0,0,.3165,14.1607,16.863,16.863,0,0,0,4.149,5.6665,19.7909,19.7909,0,0,0,4.133,2.8518A18.0241,18.0241,0,0,0,26.072,38.9163Z"/><path d="M18.2741,46.228a1.0263,1.0263,0,0,1,.6915,1.0095,7.0857,7.0857,0,0,1,.0074.9976,1.1563,1.1563,0,0,1-1.1935,1.21,12.7783,12.7783,0,0,1-1.6153.02.3488.3488,0,0,1-.2283-.2521q-.02-2.7919-.0044-5.5842c0-.0907.0928-.26.14-.26a4.6776,4.6776,0,0,1,2.3768.2464.6565.6565,0,0,1,.172.15A1.9941,1.9941,0,0,1,18.2741,46.228Zm-1.3773,1.4314a2.7575,2.7575,0,0,0,.0068.4974c.028.1506.0958.4039.1744.4152.29.0418.6966.119.7775-.2715a3.1664,3.1664,0,0,0-.0035-1.2443c-.0766-.3757-.4717-.36-.7678-.3033-.0876.0167-.1479.286-.181.4476A2.3317,2.3317,0,0,0,16.8968,47.6594Zm0-2.6386h.002a5.337,5.337,0,0,0,.0066.5758.3089.3089,0,0,0,.1414.2247.5687.5687,0,0,0,.7573-.44,2.8317,2.8317,0,0,0-.0069-.7644c-.0539-.3665-.3531-.3911-.6479-.39-.344.0013-.2323.2652-.25.4483C16.8876,44.7893,16.8968,44.9055,16.8968,45.0208Z"/><path d="M27.933,46.3564a1.3961,1.3961,0,0,1,.5486,1.3271c0,.5754,0,1.1508,0,1.7918a4.0535,4.0535,0,0,1-.73-.0155c-.0931-.0164-.2137-.2059-.221-.3228-.03-.4729-.0175-.9483-.0264-1.4226a2.0636,2.0636,0,0,0-.0394-.4579c-.0918-.3666-.3917-.4044-.6992-.3952-.3482.01-.26.2821-.2621.4834-.0062.6027-.0119,1.2058.0018,1.8084.0057.2541-.0877.3549-.3353.3271a.7717.7717,0,0,0-.1921.0006c-.34.0483-.4688-.0675-.46-.4368.0247-1.1026.0088-2.206.0088-3.3091V43.4055c.7251,0,1.403-.0409,2.0728.0145a.8884.8884,0,0,1,.81.8137A2.0955,2.0955,0,0,1,27.933,46.3564Zm-1.432-1.2621h.0018a4.8543,4.8543,0,0,0,.0081.6131.345.345,0,0,0,.1735.2433.5933.5933,0,0,0,.7975-.49,3.4512,3.4512,0,0,0-.01-.803c-.0483-.3779-.34-.4341-.6581-.4316-.3538.0027-.3172.2518-.3132.4839C26.5028,44.8383,26.501,44.9663,26.501,45.0943Z"/><path d="M31.8259,43.347v.8777c-.4634,0-.8977.0107-1.3312-.0039-.2727-.0092-.4057.0716-.3869.3687a8.2412,8.2412,0,0,1,.0009.9232c-.0128.2569.0957.3382.34.3276.3309-.0144.6629-.0036.9687-.0036.0411.0535.0671.0718.07.0932.1036.7974.1033.7931-.68.7987-.7869.0056-.6875-.1025-.6957.6953-.003.2951.0079.59-.0023.8851-.0076.2191.0884.2938.2984.29.46-.0081.9207-.0025,1.4142-.0025v.8485H29.1578c-.0066-.1352-.0178-.26-.0179-.3843-.0012-1.77.0069-3.5408-.0077-5.311-.0027-.3247.1-.4174.4154-.4091C30.3005,43.36,31.0542,43.347,31.8259,43.347Z"/><path d="M32.156,43.3709h2.98c.0152.108.0347.1943.0382.2812.0228.5706.0217.5707-.5464.5724-.5348.0016-.5352.0016-.5354.5546q0,2.0969,0,4.1936v.5035c-.2855,0-.525.004-.7643-.001-.27-.0056-.2039-.2167-.2043-.3679-.0041-1.5005-.0078-3.001.0019-4.5014.0017-.273-.0676-.3875-.3643-.3878C32.0378,44.2173,32.0378,44.2035,32.156,43.3709Z"/><path d="M36.9876,43.3477c.398,0,.7964.012,1.1939-.0029.3667-.0138.2862.2435.2912.4468.0053.2141.05.4327-.3048.44-.7023.0135-.702.0313-.702.7283,0,1.3738-.0173,2.7478.01,4.121.0085.4256-.2111.3993-.4993.4048-.3061.0058-.4941-.0141-.487-.42.0254-1.4375.01-2.8757.01-4.3136,0-.5248-.0025-.5509-.522-.5191-.3913.0239-.52-.0976-.4967-.492.0171-.2876.0748-.42.39-.4C36.2418,43.3659,36.6153,43.3472,36.9876,43.3477Z"/><path d="M20.8129,50.2408v-.6542h2.6693v.6542Z"/><path d="M24.8407,49.5216a2.2664,2.2664,0,0,1-.8891-.1716.73.73,0,0,1,.012-.696,2.2052,2.2052,0,0,1,.8771-.1394Z"/><path d="M20.4515,49.4531h-.8926v-.8917h.8926Z"/><path class="cls-1" d="M26.072,38.9163a18.0241,18.0241,0,0,1-7.3851-1.9337,19.7909,19.7909,0,0,1-4.133-2.8518,16.863,16.863,0,0,1-4.149-5.6665,16.9318,16.9318,0,0,1-.3165-14.1607A16.5,16.5,0,0,1,14.15,8.34,18.3714,18.3714,0,0,1,33.3063,4.3262,17.8509,17.8509,0,0,1,38.471,7.2519a16.9948,16.9948,0,0,1,4.2447,4.9672,17.1477,17.1477,0,0,1,.4157,17.0186,15.2479,15.2479,0,0,1-4.1,5.1839,24.1956,24.1956,0,0,1-3.6262,2.4425A18.6092,18.6092,0,0,1,26.072,38.9163ZM31.9121,24.3a1.8957,1.8957,0,0,1-.1206-.1807c-.4549-.9163-.9144-1.83-1.36-2.7513-.3573-.74-.7081-1.4829-1.0369-2.2354a1.9115,1.9115,0,0,1-.1614-.7361c-.0109-2.8755-.0066-5.7511-.008-8.6267,0-.1615-.0146-.3231-.0228-.4921H23.7545v.4386c0,.86-.0166,1.7207.0078,2.58.01.3617-.0819.5069-.4653.4823-.4858-.0311-.9751-.0078-1.4629-.0074-.5217.0005-.5227.0008-.5227.5184q0,8.5305,0,17.0608v.5864H16.6736v1.9075c.1494.0065.2756.0168.4017.0169q4.5251.0013,9.05,0c.51,0,.5113-.0015.5111-.51q-.002-5.5842-.0045-11.1685c0-.1155.0079-.2316-.0008-.3464-.0161-.2125.0688-.3017.2878-.2935a8.5546,8.5546,0,0,0,.9622-.0029.4921.4921,0,0,1,.555.3428c.5776,1.2743,1.1771,2.5387,1.7667,3.8076.046.099.0756.2056.1178.3223l-1.4556.69,2.5243,5.2307H27.6713v1.9h3.774c0-.5339.012-1.0454-.0052-1.5559a.43.43,0,0,1,.2974-.4655c.9349-.423,1.86-.8667,2.7928-1.2949.4035-.1852.8158-.3511,1.2707-.5457l-2.5684-5.2642Zm3.605,6.6319c0,.612-.0061,1.1613.0072,1.71.0018.0727.1008.2037.1576.2052.5707.0154,1.142.0093,1.7434.0093,0-.6095.0076-1.1589-.009-1.7075a.2911.2911,0,0,0-.1937-.2075C36.675,30.9243,36.1266,30.932,35.5171,30.932Zm-3.0323,0c0,.6044-.0076,1.1636.0094,1.7221a.2911.2911,0,0,0,.2047.1968c.4851.018.9715.02,1.4563,0a.3207.3207,0,0,0,.2239-.218c.0213-.4848.0214-.9714.0016-1.4563a.3226.3226,0,0,0-.2085-.2335C33.6262,30.9222,33.0791,30.9316,32.4848,30.9316Z"/><path class="cls-1" d="M16.8968,47.6594a2.3317,2.3317,0,0,1,.0064-.4589c.0331-.1616.0934-.4309.181-.4476.2961-.0563.6912-.0724.7678.3033a3.1664,3.1664,0,0,1,.0035,1.2443c-.0809.3905-.4872.3133-.7775.2715-.0786-.0113-.1464-.2646-.1744-.4152A2.7575,2.7575,0,0,1,16.8968,47.6594Z"/><path class="cls-1" d="M16.8968,45.0208c0-.1153-.0092-.2315.0021-.3457.0181-.1831-.0936-.447.25-.4483.2948-.0011.594.0235.6479.39a2.8317,2.8317,0,0,1,.0069.7644.5687.5687,0,0,1-.7573.44.3089.3089,0,0,1-.1414-.2247,5.337,5.337,0,0,1-.0066-.5758Z"/><path class="cls-1" d="M26.501,45.0943c0-.128.0018-.256,0-.3839-.004-.2321-.0406-.4812.3132-.4839.3181-.0025.61.0537.6581.4316a3.4512,3.4512,0,0,1,.01.803.5933.5933,0,0,1-.7975.49.345.345,0,0,1-.1735-.2433,4.8543,4.8543,0,0,1-.0081-.6131Z"/><path d="M31.9121,24.3l1.32-.593,2.5684,5.2642c-.4549.1946-.8672.3605-1.2707.5457-.9325.4282-1.8579.8719-2.7928,1.2949a.43.43,0,0,0-.2974.4655c.0172.5105.0052,1.022.0052,1.5559h-3.774v-1.9h3.7181L28.8651,25.703l1.4556-.69c-.0422-.1167-.0718-.2233-.1178-.3223-.59-1.2689-1.1891-2.5333-1.7667-3.8076a.4921.4921,0,0,0-.555-.3428,8.5546,8.5546,0,0,1-.9622.0029c-.219-.0082-.3039.081-.2878.2935.0087.1148.0007.2309.0008.3464q.0023,5.5844.0045,11.1685c0,.5084-.0009.51-.5111.51q-4.525.0007-9.05,0c-.1261,0-.2523-.01-.4017-.0169V30.937h4.6376v-.5864q0-8.53,0-17.0608c0-.5176.001-.5179.5227-.5184.4878,0,.9771-.0237,1.4629.0074.3834.0246.4756-.1206.4653-.4823-.0244-.8594-.0078-1.72-.0078-2.58V9.2778h5.4484c.0082.169.0227.3306.0228.4921.0014,2.8756-.0029,5.7512.008,8.6267a1.9115,1.9115,0,0,0,.1614.7361c.3288.7525.68,1.4958,1.0369,2.2354.4451.921.9046,1.835,1.36,2.7513A1.8957,1.8957,0,0,0,31.9121,24.3ZM26.5333,11.1448h-.1151c-.7947,0-.7947,0-.7947.7794,0,.8471,0,.8471.85.8471.89,0,.89,0,.89-.8441C27.3631,11.1448,27.3631,11.1448,26.5333,11.1448Z"/><path d="M35.5171,30.932c.61,0,1.1579-.0077,1.7055.01a.2911.2911,0,0,1,.1937.2075c.0166.5486.009,1.098.009,1.7075-.6014,0-1.1727.0061-1.7434-.0093-.0568-.0015-.1558-.1325-.1576-.2052C35.511,32.0933,35.5171,31.544,35.5171,30.932Z"/><path d="M32.4848,30.9316c.5943,0,1.1414-.0094,1.6874.0108a.3226.3226,0,0,1,.2085.2335c.02.4849.02.9715-.0016,1.4563a.3207.3207,0,0,1-.2239.218c-.4848.02-.9712.0183-1.4563,0a.2911.2911,0,0,1-.2047-.1968C32.4772,32.0952,32.4848,31.536,32.4848,30.9316Z"/><path class="cls-1" d="M26.5333,11.1448c.83,0,.83,0,.83.7824,0,.8441,0,.8441-.89.8441-.85,0-.85,0-.85-.8471,0-.7794,0-.7794.7947-.7794Z"/></svg>