<svg xmlns="http://www.w3.org/2000/svg" width="53" height="52" viewBox="-10 -10 53 52">
	<g fill="#05BF85" fill-rule="evenodd"><path class="a" d="M53,52H0V0H53ZM26.36,39.69a19.52,19.52,0,0,0,12.72-4.27,18.28,18.28,0,0,0,4.12-4.69,17.19,17.19,0,0,0,2.64-7.95,17.8,17.8,0,0,0-3.1-12,18.09,18.09,0,0,0-4.28-4.49A20.33,20.33,0,0,0,34.55,4a19.24,19.24,0,0,0-8.83-1.52A19.83,19.83,0,0,0,18,4.62,19.85,19.85,0,0,0,14.12,7.3,16.38,16.38,0,0,0,10,12.66a17.91,17.91,0,0,0,.46,17.58,16.9,16.9,0,0,0,4.14,5,20.78,20.78,0,0,0,4.1,2.64A18.71,18.71,0,0,0,26.36,39.69Zm-8.09,6.54a2,2,0,0,0,.35-2.46.59.59,0,0,0-.17-.15,4.6,4.6,0,0,0-2.38-.25c-.05,0-.14.17-.14.26,0,1.86,0,3.72,0,5.58a.36.36,0,0,0,.22.26,14.56,14.56,0,0,0,1.62,0A1.16,1.16,0,0,0,19,48.24a8.34,8.34,0,0,0,0-1A1,1,0,0,0,18.27,46.23Zm9.66.13a2.11,2.11,0,0,0,.48-2.13.9.9,0,0,0-.81-.81c-.67-.06-1.35,0-2.07,0v2.32c0,1.11,0,2.21,0,3.31,0,.37.12.49.46.44h.19c.25,0,.34-.07.33-.33,0-.6,0-1.2,0-1.81,0-.2-.08-.47.27-.48s.6,0,.69.4a1.68,1.68,0,0,1,0,.45c0,.48,0,.95,0,1.43a.45.45,0,0,0,.22.32,4.6,4.6,0,0,0,.73,0v-1.8A1.38,1.38,0,0,0,27.93,46.36Zm3.9-3c-.78,0-1.53,0-2.28,0-.32,0-.42.09-.42.41,0,1.77,0,3.54,0,5.31,0,.13,0,.25,0,.39h2.66V48.6H30.41c-.21,0-.31-.07-.3-.29s0-.59,0-.89c0-.79-.09-.69.7-.69s.78,0,.68-.8l-.07-.09c-.31,0-.64,0-1,0s-.35-.07-.34-.33,0-.61,0-.92.11-.38.38-.37c.44,0,.87,0,1.34,0Zm.33,0c-.12.83-.12.85.6.85.3,0,.37.11.37.39,0,1.5,0,3,0,4.5,0,.15-.06.36.21.37h.76v-4.7c0-.55,0-.55.54-.56s.57,0,.54-.57c0-.08,0-.17,0-.28Zm4.83,0c-.37,0-.75,0-1.12,0s-.37.11-.39.4.11.52.5.49.52,0,.52.52c0,1.44,0,2.88,0,4.32,0,.4.18.42.49.42s.5,0,.5-.41c0-1.37,0-2.75,0-4.12,0-.7,0-.72.7-.73.35,0,.31-.22.3-.44s.08-.46-.29-.45S37.39,43.35,37,43.35ZM20.81,50.24h2.67v-.65H20.81Zm4-.72v-1a2.32,2.32,0,0,0-.88.14.75.75,0,0,0,0,.7A2.27,2.27,0,0,0,24.84,49.52Zm-4.39-.07v-.89h-.89v.89Z"/><path d="M26.36,39.69a18.71,18.71,0,0,1-7.68-1.85,20.78,20.78,0,0,1-4.1-2.64,16.9,16.9,0,0,1-4.14-5A17.91,17.91,0,0,1,10,12.66,16.38,16.38,0,0,1,14.12,7.3,19.85,19.85,0,0,1,18,4.62a19.83,19.83,0,0,1,7.76-2.15A19.24,19.24,0,0,1,34.55,4a20.33,20.33,0,0,1,3.91,2.27,18.09,18.09,0,0,1,4.28,4.49,17.8,17.8,0,0,1,3.1,12,17.19,17.19,0,0,1-2.64,8,18.28,18.28,0,0,1-4.12,4.69A19.52,19.52,0,0,1,26.36,39.69Zm-.29-.77a18.56,18.56,0,0,0,9.33-2.06A23.28,23.28,0,0,0,39,34.42a15.18,15.18,0,0,0,4.1-5.18,17.17,17.17,0,0,0-.41-17,17.18,17.18,0,0,0-4.25-5,18,18,0,0,0-5.16-2.92,18.34,18.34,0,0,0-19.16,4,16.52,16.52,0,0,0-4.06,6,17,17,0,0,0,.31,14.16,16.88,16.88,0,0,0,4.15,5.67A19.66,19.66,0,0,0,18.69,37,18,18,0,0,0,26.07,38.92Z"/><path d="M18.27,46.23a1,1,0,0,1,.7,1,8.34,8.34,0,0,1,0,1,1.16,1.16,0,0,1-1.19,1.21,14.56,14.56,0,0,1-1.62,0,.36.36,0,0,1-.22-.26c0-1.86,0-3.72,0-5.58,0-.09.09-.26.14-.26a4.6,4.6,0,0,1,2.38.25.59.59,0,0,1,.17.15A2,2,0,0,1,18.27,46.23ZM16.9,47.66a2.78,2.78,0,0,0,0,.5c0,.15.1.4.18.41.29,0,.69.12.78-.27a3.23,3.23,0,0,0,0-1.24c-.07-.38-.47-.36-.77-.31-.08,0-.14.29-.18.45A2.36,2.36,0,0,0,16.9,47.66Zm0-2.64h0a3.75,3.75,0,0,0,0,.58.27.27,0,0,0,.14.22.56.56,0,0,0,.75-.44,2.76,2.76,0,0,0,0-.76c-.06-.37-.36-.39-.65-.39s-.23.26-.25.45S16.9,44.91,16.9,45Z"/><path d="M27.93,46.36a1.38,1.38,0,0,1,.55,1.32v1.8a4.6,4.6,0,0,1-.73,0,.45.45,0,0,1-.22-.32c0-.48,0-1,0-1.43a1.68,1.68,0,0,0,0-.45c-.09-.37-.39-.41-.69-.4s-.26.28-.27.48c0,.61,0,1.21,0,1.81,0,.26-.08.36-.33.33H26c-.34.05-.47-.07-.46-.44,0-1.1,0-2.2,0-3.31V43.41c.72,0,1.4,0,2.07,0a.9.9,0,0,1,.81.81A2.11,2.11,0,0,1,27.93,46.36ZM26.5,45.09h0c0,.21,0,.42,0,.62a.36.36,0,0,0,.17.24.59.59,0,0,0,.8-.49,3.06,3.06,0,0,0,0-.8c0-.38-.34-.44-.66-.43s-.31.25-.31.48Z"/><path d="M31.83,43.35v.87c-.47,0-.9,0-1.34,0-.27,0-.4.07-.38.37s0,.62,0,.92.09.34.34.33.66,0,1,0l.07.09c.1.8.1.79-.68.8s-.69-.1-.7.69c0,.3,0,.59,0,.89s.09.29.3.29h1.41v.85H29.16c0-.14,0-.26,0-.39,0-1.77,0-3.54,0-5.31,0-.32.1-.42.42-.41C30.3,43.36,31.05,43.35,31.83,43.35Z"/><path d="M32.16,43.37h3c0,.11,0,.2,0,.28,0,.57,0,.57-.54.57s-.54,0-.54.56v4.7h-.76c-.27,0-.21-.22-.21-.37,0-1.5,0-3,0-4.5,0-.28-.07-.39-.37-.39C32,44.22,32,44.2,32.16,43.37Z"/><path d="M37,43.35c.4,0,.79,0,1.19,0s.29.25.29.45.05.43-.3.44c-.7,0-.7,0-.7.73,0,1.37,0,2.75,0,4.12,0,.43-.22.4-.5.41s-.5,0-.49-.42c0-1.44,0-2.88,0-4.32,0-.52,0-.55-.52-.52s-.52-.09-.5-.49.08-.42.39-.4S36.62,43.35,37,43.35Z"/><path d="M20.81,50.24v-.65h2.67v.65Z"/><path d="M24.84,49.52a2.27,2.27,0,0,1-.89-.17.75.75,0,0,1,0-.7,2.32,2.32,0,0,1,.88-.14Z"/><path d="M20.45,49.45h-.89v-.89h.89Z"/><path class="a" d="M26.07,38.92A18,18,0,0,1,18.69,37a19.66,19.66,0,0,1-4.14-2.85,16.88,16.88,0,0,1-4.15-5.67,17,17,0,0,1-.31-14.16,16.52,16.52,0,0,1,4.06-6,18.34,18.34,0,0,1,19.16-4,18,18,0,0,1,5.16,2.92,17.18,17.18,0,0,1,4.25,5,17.17,17.17,0,0,1,.41,17A15.18,15.18,0,0,1,39,34.42a23.28,23.28,0,0,1-3.63,2.44A18.56,18.56,0,0,1,26.07,38.92ZM31.91,24.3l-.12-.18c-.45-.92-.91-1.83-1.36-2.75-.36-.74-.71-1.48-1-2.24a1.86,1.86,0,0,1-.17-.73c0-2.88,0-5.75,0-8.63,0-.16,0-.32,0-.49H23.75v.44c0,.86,0,1.72,0,2.58,0,.36-.08.5-.46.48s-1,0-1.47,0-.52,0-.52.52V30.94H16.67v1.9l.41,0h9.05c.51,0,.51,0,.51-.51,0-3.72,0-7.44,0-11.17,0-.11,0-.23,0-.34s.07-.3.29-.3a7.69,7.69,0,0,0,1,0,.5.5,0,0,1,.56.34c.57,1.28,1.17,2.54,1.76,3.81a3,3,0,0,1,.12.32l-1.45.69,2.52,5.23H27.67v1.9h3.78c0-.53,0-1,0-1.55a.44.44,0,0,1,.3-.47c.93-.42,1.86-.86,2.79-1.29.4-.19.82-.35,1.27-.55l-2.57-5.26Zm3.61,6.63c0,.61,0,1.16,0,1.71,0,.07.11.21.16.21h1.75c0-.61,0-1.16,0-1.71,0-.08-.13-.21-.2-.21C36.67,30.92,36.13,30.93,35.52,30.93Zm-3,0c0,.61,0,1.17,0,1.72a.32.32,0,0,0,.21.2c.48,0,1,0,1.46,0a.31.31,0,0,0,.22-.22c0-.48,0-1,0-1.45a.32.32,0,0,0-.21-.24C33.63,30.92,33.08,30.93,32.48,30.93Z"/><path class="a" d="M16.9,47.66a2.36,2.36,0,0,1,0-.46c0-.16.1-.43.18-.45.3,0,.7-.07.77.31a3.23,3.23,0,0,1,0,1.24c-.09.39-.49.31-.78.27-.08,0-.15-.26-.18-.41A2.78,2.78,0,0,1,16.9,47.66Z"/><path class="a" d="M16.9,45c0-.11,0-.23,0-.34s-.09-.45.25-.45.59,0,.65.39a2.76,2.76,0,0,1,0,.76.56.56,0,0,1-.75.44.27.27,0,0,1-.14-.22,3.75,3.75,0,0,1,0-.58Z"/><path class="a" d="M26.5,45.09v-.38c0-.23,0-.48.31-.48s.61.05.66.43a3.06,3.06,0,0,1,0,.8.59.59,0,0,1-.8.49.36.36,0,0,1-.17-.24c0-.2,0-.41,0-.62Z"/><path d="M31.91,24.3l1.32-.59L35.8,29c-.45.2-.87.36-1.27.55-.93.43-1.86.87-2.79,1.29a.44.44,0,0,0-.3.47c0,.51,0,1,0,1.55H27.67v-1.9h3.72L28.87,25.7,30.32,25a3,3,0,0,0-.12-.32c-.59-1.27-1.19-2.53-1.76-3.81a.5.5,0,0,0-.56-.34,7.69,7.69,0,0,1-1,0c-.22,0-.3.08-.29.3s0,.23,0,.34c0,3.73,0,7.45,0,11.17,0,.51,0,.51-.51.51h-9l-.41,0v-1.9h4.64V13.29c0-.52,0-.52.52-.52s1,0,1.47,0,.47-.12.46-.48c0-.86,0-1.72,0-2.58V9.28H29.2c0,.17,0,.33,0,.49,0,2.88,0,5.75,0,8.63a1.86,1.86,0,0,0,.17.73c.32.76.67,1.5,1,2.24.45.92.91,1.83,1.36,2.75ZM26.53,11.14h-.11c-.8,0-.8,0-.8.78s0,.85.85.85.89,0,.89-.84S27.36,11.14,26.53,11.14Z"/><path d="M35.52,30.93c.61,0,1.15,0,1.7,0,.07,0,.19.13.2.21,0,.55,0,1.1,0,1.71H35.68s-.15-.14-.16-.21C35.51,32.09,35.52,31.54,35.52,30.93Z"/><path d="M32.48,30.93c.6,0,1.15,0,1.69,0a.32.32,0,0,1,.21.24c0,.48,0,1,0,1.45a.31.31,0,0,1-.22.22c-.49,0-1,0-1.46,0a.32.32,0,0,1-.21-.2C32.48,32.1,32.48,31.54,32.48,30.93Z"/><path class="a" d="M26.53,11.14c.83,0,.83,0,.83.79s0,.84-.89.84-.85,0-.85-.85,0-.78.8-.78Z"/></g></svg>