<?xml version="1.0" encoding="utf-8"?>
<!-- Generator: Adobe Illustrator 25.2.3, SVG Export Plug-In . SVG Version: 6.00 Build 0)  -->
<svg version="1.1" id="Layer_1" xmlns="http://www.w3.org/2000/svg" xmlns:xlink="http://www.w3.org/1999/xlink" x="0px" y="0px"
	 viewBox="0 0 53 52" style="enable-background:new 0 0 53 52;" xml:space="preserve">
<style type="text/css">
	.st0{fill-rule:evenodd;clip-rule:evenodd;fill:#FFFFFF;}
	.st1{fill-rule:evenodd;clip-rule:evenodd;fill:#05BF85;}
</style>
<g>
	<path class="st0" d="M53.1,52h-53V0h53V52z M26.5,39.7c4.6,0.1,9.1-1.4,12.7-4.3c1.6-1.3,3-2.9,4.1-4.7c1.5-2.4,2.4-5.1,2.6-8
		c0.4-4.2-0.7-8.5-3.1-12c-1.2-1.7-2.6-3.2-4.3-4.5c-1.2-0.9-2.5-1.7-3.9-2.3c-2.8-1.2-5.8-1.7-8.8-1.5c-4.3,0.2-8.4,1.9-11.6,4.8
		c-1.7,1.5-3.1,3.3-4.1,5.4c-2.9,5.6-2.8,12.2,0.5,17.6c1.1,1.9,2.4,3.6,4.1,5c1.3,1,2.6,1.9,4.1,2.6C21.2,39,23.8,39.6,26.5,39.7z
		 M18.4,46.2c0.7-0.6,0.8-1.7,0.4-2.5c0-0.1-0.1-0.1-0.2-0.2c-0.8-0.3-1.6-0.4-2.4-0.2c-0.1,0-0.1,0.2-0.1,0.3c0,1.9,0,3.7,0,5.6
		c0,0.1,0.1,0.2,0.2,0.2c0.5,0,1.1,0,1.6,0c0.6,0,1.2-0.5,1.2-1.1c0,0,0-0.1,0-0.1c0-0.3,0-0.7,0-1C19.1,46.8,18.8,46.4,18.4,46.2z
		 M28.1,46.4c0.5-0.6,0.7-1.4,0.5-2.1c0-0.4-0.4-0.8-0.8-0.8c-0.7-0.1-1.4,0-2.1,0v2.3c0,1.1,0,2.2,0,3.3c0,0.4,0.1,0.5,0.5,0.4
		c0.1,0,0.1,0,0.2,0c0.2,0,0.3-0.1,0.3-0.3c0-0.6,0-1.2,0-1.8c0-0.2-0.1-0.5,0.3-0.5c0.3,0,0.6,0,0.7,0.4c0,0.2,0,0.3,0,0.5
		c0,0.5,0,1,0,1.4c0,0.1,0.1,0.3,0.2,0.3c0.2,0,0.5,0,0.7,0c0-0.6,0-1.2,0-1.8C28.7,47.2,28.5,46.7,28.1,46.4z M32,43.3
		c-0.8,0-1.5,0-2.3,0c-0.3,0-0.4,0.1-0.4,0.4c0,1.8,0,3.5,0,5.3c0,0.1,0,0.2,0,0.4h2.7v-0.8c-0.5,0-1,0-1.4,0
		c-0.2,0-0.3-0.1-0.3-0.3c0-0.3,0-0.6,0-0.9c0-0.8-0.1-0.7,0.7-0.7c0.8,0,0.8,0,0.7-0.8c0,0,0,0-0.1-0.1c-0.3,0-0.6,0-1,0
		c-0.2,0-0.4-0.1-0.3-0.3c0-0.3,0-0.6,0-0.9s0.1-0.4,0.4-0.4c0.4,0,0.9,0,1.3,0L32,43.3z M32.3,43.4c-0.1,0.8-0.1,0.8,0.6,0.8
		c0.3,0,0.4,0.1,0.4,0.4c0,1.5,0,3,0,4.5c0,0.2-0.1,0.4,0.2,0.4c0.2,0,0.5,0,0.8,0V49c0-1.4,0-2.8,0-4.2c0-0.5,0-0.5,0.5-0.5
		c0.6,0,0.6,0,0.5-0.6c0-0.1,0-0.2,0-0.3L32.3,43.4z M37.1,43.3c-0.4,0-0.8,0-1.1,0c-0.3,0-0.4,0.1-0.4,0.4c0,0.4,0.1,0.5,0.5,0.5
		c0.5,0,0.5,0,0.5,0.5c0,1.4,0,2.9,0,4.3c0,0.4,0.2,0.4,0.5,0.4c0.3,0,0.5,0,0.5-0.4c0-1.4,0-2.8,0-4.1c0-0.7,0-0.7,0.7-0.7
		c0.3,0,0.3-0.2,0.3-0.4c0-0.2,0.1-0.5-0.3-0.5C37.9,43.4,37.5,43.3,37.1,43.3L37.1,43.3z M20.9,50.2h2.7v-0.7h-2.7V50.2z M25,49.5
		v-1c-0.3,0-0.6,0-0.9,0.1c-0.1,0.2-0.1,0.5,0,0.7C24.4,49.5,24.7,49.5,25,49.5z M20.6,49.5v-0.9h-0.9v0.9H20.6z"/>
	<path class="st1" d="M26.5,39.7c-2.7-0.1-5.3-0.7-7.7-1.8c-1.5-0.7-2.8-1.6-4.1-2.6c-1.7-1.4-3.1-3-4.1-5c-3.2-5.4-3.4-12-0.5-17.6
		c1-2.1,2.4-3.9,4.1-5.4c3.2-2.9,7.3-4.6,11.6-4.8c3-0.2,6,0.3,8.8,1.5c1.4,0.6,2.7,1.4,3.9,2.3c1.7,1.2,3.1,2.8,4.3,4.5
		c2.5,3.5,3.5,7.8,3.1,12c-0.2,2.8-1.1,5.6-2.6,8c-1.1,1.8-2.5,3.4-4.1,4.7C35.6,38.3,31.1,39.8,26.5,39.7z M26.2,38.9
		c3.2,0.1,6.5-0.6,9.3-2c1.3-0.7,2.5-1.5,3.6-2.4c1.7-1.4,3.1-3.2,4.1-5.2c2.9-5.4,2.7-11.8-0.4-17c-1.1-1.9-2.5-3.6-4.2-5
		C37,6,35.3,5,33.4,4.3c-6.6-2.5-14.1-0.9-19.2,4c-1.8,1.7-3.2,3.7-4.1,6c-2,4.5-1.9,9.7,0.3,14.2c1,2.2,2.4,4.1,4.1,5.7
		c1.2,1.1,2.6,2.1,4.1,2.8C21.1,38.2,23.6,38.8,26.2,38.9z"/>
	<path class="st1" d="M18.4,46.2c0.4,0.2,0.7,0.6,0.7,1c0,0.3,0,0.7,0,1c0,0.6-0.5,1.2-1.1,1.2c0,0-0.1,0-0.1,0c-0.5,0-1.1,0-1.6,0
		c-0.1,0-0.2-0.1-0.2-0.2c0-1.9,0-3.7,0-5.6c0-0.1,0.1-0.3,0.1-0.3c0.8-0.1,1.6,0,2.4,0.2c0.1,0,0.1,0.1,0.2,0.2
		C19.2,44.6,19.1,45.6,18.4,46.2z M17,47.7c0,0.2,0,0.3,0,0.5c0,0.2,0.1,0.4,0.2,0.4c0.3,0,0.7,0.1,0.8-0.3c0.1-0.4,0.1-0.8,0-1.2
		c-0.1-0.4-0.5-0.4-0.8-0.3c-0.1,0-0.1,0.3-0.2,0.5C17,47.3,17,47.5,17,47.7z M17,45L17,45c0,0.2,0,0.4,0,0.6c0,0.1,0.1,0.2,0.1,0.2
		c0.3,0.1,0.6,0,0.7-0.3c0,0,0-0.1,0-0.1c0-0.2,0-0.5,0-0.8c0-0.4-0.4-0.4-0.6-0.4c-0.3,0-0.2,0.3-0.2,0.5C17,44.8,17,44.9,17,45z"
		/>
	<path class="st1" d="M28.1,46.4c0.4,0.3,0.6,0.8,0.5,1.3c0,0.6,0,1.2,0,1.8c-0.2,0-0.5,0-0.7,0c-0.1,0-0.2-0.2-0.2-0.3
		c0-0.5,0-1,0-1.4c0-0.2,0-0.3,0-0.5c-0.1-0.4-0.4-0.4-0.7-0.4c-0.4,0-0.3,0.3-0.3,0.5c0,0.6,0,1.2,0,1.8c0,0.2-0.1,0.3-0.3,0.3
		c-0.1,0-0.1,0-0.2,0c-0.3,0-0.5-0.1-0.5-0.4c0-1.1,0-2.2,0-3.3v-2.3c0.7,0,1.4,0,2.1,0c0.4,0,0.8,0.4,0.8,0.8
		C28.8,45,28.6,45.8,28.1,46.4z M26.6,45.1L26.6,45.1c0,0.2,0,0.4,0,0.6c0,0.1,0.1,0.2,0.2,0.2c0.3,0.1,0.6,0,0.8-0.3
		c0,0,0-0.1,0-0.1c0-0.3,0-0.5,0-0.8c0-0.4-0.3-0.4-0.7-0.4c-0.4,0-0.3,0.2-0.3,0.5C26.6,44.8,26.6,45,26.6,45.1z"/>
	<path class="st1" d="M32,43.3v0.9c-0.5,0-0.9,0-1.3,0c-0.3,0-0.4,0.1-0.4,0.4c0,0.3,0,0.6,0,0.9c0,0.3,0.1,0.3,0.3,0.3
		c0.3,0,0.7,0,1,0c0,0,0.1,0.1,0.1,0.1c0.1,0.8,0.1,0.8-0.7,0.8c-0.8,0-0.7-0.1-0.7,0.7c0,0.3,0,0.6,0,0.9c0,0.2,0.1,0.3,0.3,0.3
		c0.5,0,0.9,0,1.4,0v0.8h-2.7c0-0.1,0-0.3,0-0.4c0-1.8,0-3.5,0-5.3c0-0.3,0.1-0.4,0.4-0.4C30.4,43.4,31.2,43.3,32,43.3z"/>
	<path class="st1" d="M32.3,43.4h3c0,0.1,0,0.2,0,0.3c0,0.6,0,0.6-0.5,0.6c-0.5,0-0.5,0-0.5,0.5c0,1.4,0,2.8,0,4.2v0.5
		c-0.3,0-0.5,0-0.8,0c-0.3,0-0.2-0.2-0.2-0.4c0-1.5,0-3,0-4.5c0-0.3-0.1-0.4-0.4-0.4C32.2,44.2,32.2,44.2,32.3,43.4z"/>
	<path class="st1" d="M37.1,43.3c0.4,0,0.8,0,1.2,0c0.4,0,0.3,0.2,0.3,0.5c0,0.2,0,0.4-0.3,0.4c-0.7,0-0.7,0-0.7,0.7
		c0,1.4,0,2.8,0,4.1c0,0.4-0.2,0.4-0.5,0.4c-0.3,0-0.5,0-0.5-0.4c0-1.4,0-2.9,0-4.3c0-0.5,0-0.5-0.5-0.5c-0.4,0-0.5-0.1-0.5-0.5
		c0-0.3,0.1-0.4,0.4-0.4C36.4,43.4,36.7,43.3,37.1,43.3z"/>
	<path class="st1" d="M20.9,50.2v-0.7h2.7v0.7H20.9z"/>
	<path class="st1" d="M25,49.5c-0.3,0-0.6-0.1-0.9-0.2c-0.1-0.2-0.1-0.5,0-0.7c0.3-0.1,0.6-0.2,0.9-0.1V49.5z"/>
	<path class="st1" d="M20.6,49.5h-0.9v-0.9h0.9V49.5z"/>
	<path class="st0" d="M26.2,38.9c-2.6-0.1-5.1-0.8-7.4-1.9c-1.5-0.8-2.9-1.7-4.1-2.8c-1.8-1.6-3.2-3.5-4.2-5.7
		c-2.2-4.4-2.3-9.6-0.3-14.2c0.9-2.3,2.3-4.3,4.1-6c5.1-4.9,12.5-6.5,19.2-4C35.3,5,37,6,38.6,7.2c1.7,1.4,3.2,3.1,4.2,5
		c3.1,5.2,3.3,11.7,0.4,17c-1,2-2.4,3.8-4.1,5.2c-1.1,0.9-2.3,1.7-3.6,2.4C32.7,38.3,29.4,39.1,26.2,38.9z M32,24.3
		c0-0.1-0.1-0.1-0.1-0.2c-0.5-0.9-0.9-1.8-1.4-2.8c-0.4-0.7-0.7-1.5-1-2.2c-0.1-0.2-0.2-0.5-0.2-0.7c0-2.9,0-5.8,0-8.6
		c0-0.2,0-0.3,0-0.5h-5.4v0.4c0,0.9,0,1.7,0,2.6c0,0.4-0.1,0.5-0.5,0.5c-0.5,0-1,0-1.5,0c-0.5,0-0.5,0-0.5,0.5c0,5.7,0,11.4,0,17.1
		v0.6h-4.6v1.9c0.2,0,0.3,0,0.4,0c3,0,6,0,9,0c0.5,0,0.5,0,0.5-0.5c0-3.7,0-7.5,0-11.2c0-0.1,0-0.2,0-0.4c0-0.2,0.1-0.3,0.3-0.3
		c0.3,0,0.6,0,1,0c0.2,0,0.5,0.1,0.6,0.3c0.6,1.3,1.2,2.5,1.8,3.8c0,0.1,0.1,0.2,0.1,0.3L29,25.7l2.5,5.2h-3.7v1.9h3.8
		c0-0.5,0-1,0-1.6c0-0.2,0.1-0.4,0.3-0.5c0.9-0.4,1.9-0.9,2.8-1.3c0.4-0.2,0.8-0.4,1.3-0.5l-2.6-5.3L32,24.3z M35.6,30.9
		c0,0.6,0,1.2,0,1.7c0,0.1,0.1,0.2,0.2,0.2c0.6,0,1.1,0,1.7,0c0-0.6,0-1.2,0-1.7c0-0.1-0.1-0.2-0.2-0.2
		C36.8,30.9,36.2,30.9,35.6,30.9L35.6,30.9z M32.6,30.9c0,0.6,0,1.2,0,1.7c0,0.1,0.1,0.2,0.2,0.2c0.5,0,1,0,1.5,0
		c0.1,0,0.2-0.1,0.2-0.2c0-0.5,0-1,0-1.5c0-0.1-0.1-0.2-0.2-0.2C33.8,30.9,33.2,30.9,32.6,30.9L32.6,30.9z"/>
	<path class="st0" d="M17,47.7c0-0.2,0-0.3,0-0.5c0-0.2,0.1-0.4,0.2-0.5c0.3-0.1,0.7-0.1,0.8,0.3c0.1,0.4,0.1,0.8,0,1.2
		c-0.1,0.4-0.5,0.3-0.8,0.3c-0.1,0-0.1-0.3-0.2-0.4C17,48,17,47.8,17,47.7z"/>
	<path class="st0" d="M17,45c0-0.1,0-0.2,0-0.3c0-0.2-0.1-0.5,0.2-0.5c0.3,0,0.6,0,0.6,0.4c0,0.2,0,0.5,0,0.8c0,0.3-0.3,0.5-0.6,0.5
		c0,0-0.1,0-0.1,0c-0.1,0-0.1-0.1-0.1-0.2C17,45.4,17,45.2,17,45L17,45z"/>
	<path class="st0" d="M26.6,45.1c0-0.1,0-0.3,0-0.4c0-0.2,0-0.5,0.3-0.5c0.3,0,0.6,0,0.7,0.4c0,0.3,0,0.5,0,0.8
		c0,0.3-0.3,0.6-0.7,0.5c0,0-0.1,0-0.1,0c-0.1,0-0.2-0.1-0.2-0.2C26.6,45.5,26.6,45.3,26.6,45.1L26.6,45.1z"/>
	<path class="st1" d="M32,24.3l1.3-0.6l2.6,5.3c-0.5,0.2-0.9,0.4-1.3,0.5c-0.9,0.4-1.9,0.9-2.8,1.3c-0.2,0.1-0.3,0.3-0.3,0.5
		c0,0.5,0,1,0,1.6h-3.8v-1.9h3.7L29,25.7l1.5-0.7c0-0.1-0.1-0.2-0.1-0.3c-0.6-1.3-1.2-2.5-1.8-3.8c-0.1-0.2-0.3-0.4-0.6-0.3
		c-0.3,0-0.6,0-1,0c-0.2,0-0.3,0.1-0.3,0.3c0,0.1,0,0.2,0,0.4c0,3.7,0,7.5,0,11.2c0,0.5,0,0.5-0.5,0.5c-3,0-6,0-9.1,0
		c-0.1,0-0.2,0-0.4,0v-1.9h4.6v-0.6c0-5.7,0-11.4,0-17.1c0-0.5,0-0.5,0.5-0.5c0.5,0,1,0,1.5,0c0.4,0,0.5-0.1,0.5-0.5
		c0-0.9,0-1.7,0-2.6V9.3h5.5c0,0.2,0,0.3,0,0.5c0,2.9,0,5.8,0,8.6c0,0.2,0.1,0.5,0.2,0.7c0.3,0.8,0.7,1.5,1,2.2
		c0.5,0.9,0.9,1.8,1.4,2.8C32,24.2,32,24.2,32,24.3z M26.7,11.1h-0.1c-0.8,0-0.8,0-0.8,0.8c0,0.9,0,0.9,0.9,0.9c0.9,0,0.9,0,0.9-0.8
		C27.5,11.1,27.5,11.1,26.7,11.1z"/>
	<path class="st1" d="M35.6,30.9c0.6,0,1.2,0,1.7,0c0.1,0,0.2,0.1,0.2,0.2c0,0.5,0,1.1,0,1.7c-0.6,0-1.2,0-1.7,0
		c-0.1,0-0.2-0.1-0.2-0.2C35.6,32.1,35.6,31.5,35.6,30.9z"/>
	<path class="st1" d="M32.6,30.9c0.6,0,1.1,0,1.7,0c0.1,0,0.2,0.1,0.2,0.2c0,0.5,0,1,0,1.5c0,0.1-0.1,0.2-0.2,0.2c-0.5,0-1,0-1.5,0
		c-0.1,0-0.2-0.1-0.2-0.2C32.6,32.1,32.6,31.5,32.6,30.9z"/>
	<path class="st0" d="M26.7,11.1c0.8,0,0.8,0,0.8,0.8c0,0.8,0,0.8-0.9,0.8c-0.9,0-0.9,0-0.9-0.9c0-0.8,0-0.8,0.8-0.8L26.7,11.1
		L26.7,11.1z"/>
</g>
</svg>
